<?xml version="1.0" encoding="UTF-8" standalone="no"?>
<svg
   xml:space="preserve"
   width="153.455in"
   height="157.61501in"
   version="1.1"
   style="clip-rule:evenodd;fill-rule:evenodd;image-rendering:optimizeQuality;shape-rendering:geometricPrecision;text-rendering:geometricPrecision"
   viewBox="0 0 14731.68 15131.041"
   id="svg778"
   sodipodi:docname="EEG_10-10.svg"
   inkscape:version="1.2.1 (9c6d41e410, 2022-07-14)"
   xmlns:inkscape="http://www.inkscape.org/namespaces/inkscape"
   xmlns:sodipodi="http://sodipodi.sourceforge.net/DTD/sodipodi-0.dtd"
   xmlns="http://www.w3.org/2000/svg"
   xmlns:svg="http://www.w3.org/2000/svg"><sodipodi:namedview
   id="namedview780"
   pagecolor="#ffffff"
   bordercolor="#000000"
   borderopacity="0.25"
   inkscape:showpageshadow="2"
   inkscape:pageopacity="0.0"
   inkscape:pagecheckerboard="0"
   inkscape:deskcolor="#d1d1d1"
   showgrid="false"
   inkscape:zoom="0.037660073"
   inkscape:cx="4726.4911"
   inkscape:cy="8258.0827"
   inkscape:window-width="1920"
   inkscape:window-height="1017"
   inkscape:window-x="1912"
   inkscape:window-y="-8"
   inkscape:window-maximized="1"
   inkscape:current-layer="svg778"
   inkscape:document-units="in" />
 <defs
   id="defs4">
  <style
   type="text/css"
   id="style2">
    .str0 {stroke:black;stroke-width:50}
    .str1 {stroke:black;stroke-width:17.64}
    .str2 {stroke:#B3B3B3;stroke-width:85}
    .str4 {stroke:black;stroke-width:35.36}
    .str3 {stroke:black;stroke-width:17.73}
    .str5 {stroke:black;stroke-width:17.73;stroke-dasharray:185.610000 247.480000}
    .fil0 {fill:none}
    .fil16 {fill:black}
    .fil12 {fill:black}
    .fil9 {fill:#B4D8EC}
    .fil8 {fill:#B5D4C5}
    .fil10 {fill:#B6CF9D}
    .fil7 {fill:#CDDFE9}
    .fil3 {fill:#D9E59B}
    .fil1 {fill:#E6E6E6}
    .fil2 {fill:#F1F1BF}
    .fil6 {fill:#F7A6B6}
    .fil5 {fill:#FAD1A7}
    .fil4 {fill:#FCFB98}
    .fil15 {fill:white}
    .fil11 {fill:black;fill-rule:nonzero}
    .fil14 {fill:#B3B3B3;fill-rule:nonzero}
    .fil13 {fill:white;fill-rule:nonzero}
  </style>
 </defs>
  
  
  <circle
   class="fil0 str1"
   cx="7366"
   cy="7910"
   r="6833"
   id="circle10" />
  <circle
   class="fil0 str1"
   cx="7366"
   cy="7910"
   r="5442"
   id="circle12" />
  <line
   class="fil0 str1"
   x1="532"
   y1="7910"
   x2="14199"
   y2="7910"
   id="line14" />
  <line
   class="fil0 str1"
   x1="7366"
   y1="1076"
   x2="7366"
   y2="14743"
   id="line16" />
  <circle
   class="fil1 str1"
   cx="7366"
   cy="7910"
   r="380"
   id="circle18"
   style="fill:#ffffff" />
  <circle
   class="fil2 str1"
   cx="7366"
   cy="9261"
   r="380"
   id="circle20"
   style="fill:#ffffff" />
  <circle
   class="fil2 str1"
   cx="8663"
   cy="9287"
   r="380"
   id="circle22"
   style="fill:#ffffff" />
  <circle
   class="fil2 str1"
   cx="9958"
   cy="9382"
   r="380"
   id="circle24"
   style="fill:#ffffff" />
  <circle
   class="fil2 str1"
   cx="11271"
   cy="9434"
   r="380"
   id="circle26"
   style="fill:#ffffff" />
  <circle
   class="fil3 str1"
   cx="12531"
   cy="9615"
   r="380"
   id="circle28"
   style="fill:#ffffff" />
  <circle
   class="fil3 str1"
   cx="13861"
   cy="10038"
   r="380"
   id="circle30"
   style="fill:#ffffff" />
  <circle
   class="fil4 str1"
   cx="7366"
   cy="10647"
   r="380"
   id="circle32"
   style="fill:#ffffff" />
  <circle
   class="fil4 str1"
   cx="8464"
   cy="10677"
   r="380"
   id="circle34"
   style="fill:#ffffff" />
  <circle
   class="fil4 str1"
   cx="9639"
   cy="10755"
   r="380"
   id="circle36"
   style="fill:#ffffff" />
  <circle
   class="fil4 str1"
   cx="10753"
   cy="10884"
   r="380"
   id="circle38"
   style="fill:#ffffff" />
  <circle
   class="fil4 str1"
   cx="11780"
   cy="11135"
   r="380"
   id="circle40"
   style="fill:#ffffff" />
  <circle
   class="fil5 str1"
   cx="7366"
   cy="11981"
   r="380"
   id="circle42"
   style="fill:#ffffff" />
  <circle
   class="fil6 str1"
   cx="9043"
   cy="13121"
   r="380"
   id="circle44"
   style="fill:#ffffff" />
  <circle
   class="fil5 str1"
   cx="9012"
   cy="12093"
   r="380"
   id="circle46"
   style="fill:#ffffff" />
  <circle
   class="fil5 str1"
   cx="10580"
   cy="12344"
   r="380"
   id="circle48"
   style="fill:#ffffff" />
  <circle
   class="fil6 str1"
   cx="7366"
   cy="13384"
   r="380"
   id="circle50"
   style="fill:#ffffff" />
  <circle
   class="fil7 str1"
   cx="7366"
   cy="6537"
   r="380"
   id="circle52"
   style="fill:#ffffff;stroke:#000000;stroke-width:17.693;stroke-dasharray:none;stroke-opacity:1" />
  <circle
   class="fil7 str1"
   cx="8663"
   cy="6567"
   r="380"
   id="circle54"
   style="fill:#ffffff;stroke:#000000;stroke-width:17.693;stroke-dasharray:none;stroke-opacity:1" />
  <circle
   class="fil7 str1"
   cx="9950"
   cy="6481"
   r="380"
   id="circle56"
   style="fill:#ffffff;stroke:#000000;stroke-width:17.693;stroke-dasharray:none;stroke-opacity:1" />
  <circle
   class="fil7 str1"
   cx="11253"
   cy="6412"
   r="380"
   id="circle58"
   style="fill:#ffffff;stroke:#000000;stroke-width:17.693;stroke-dasharray:none;stroke-opacity:1" />
  <circle
   class="fil8 str1"
   cx="12531"
   cy="6231"
   r="380"
   id="circle60"
   style="fill:#ffffff;stroke:#000000;stroke-width:17.693;stroke-dasharray:none;stroke-opacity:1" />
  <circle
   class="fil8 str1"
   cx="13870"
   cy="5799"
   r="380"
   id="circle62"
   style="fill:#ffffff;stroke:#000000;stroke-width:17.693;stroke-dasharray:none;stroke-opacity:1" />
  <circle
   class="fil9 str1"
   cx="7366"
   cy="5164"
   r="380"
   id="circle64"
   style="fill:#ffffff;stroke:#000000;stroke-width:17.693;stroke-dasharray:none;stroke-opacity:1" />
  <circle
   class="fil9 str1"
   cx="8482"
   cy="5177"
   r="380"
   id="circle66"
   style="fill:#ffffff;stroke:#000000;stroke-width:17.693;stroke-dasharray:none;stroke-opacity:1" />
  <circle
   class="fil9 str1"
   cx="9647"
   cy="5091"
   r="380"
   id="circle68"
   style="fill:#ffffff;stroke:#000000;stroke-width:17.693;stroke-dasharray:none;stroke-opacity:1" />
  <circle
   class="fil9 str1"
   cx="10761"
   cy="4961"
   r="380"
   id="circle70"
   style="fill:#ffffff;stroke:#000000;stroke-width:17.693;stroke-dasharray:none;stroke-opacity:1" />
  <circle
   class="fil9 str1"
   cx="11780"
   cy="4711"
   r="380"
   id="circle72"
   style="fill:#ffffff;stroke:#000000;stroke-width:17.693;stroke-dasharray:none;stroke-opacity:1" />
  <circle
   class="fil9 str1"
   cx="7366"
   cy="3852"
   r="380"
   id="circle74"
   style="fill:#ffffff;stroke:#000000;stroke-width:17.693;stroke-dasharray:none;stroke-opacity:1" />
  <circle
   class="fil9 str1"
   cx="9043"
   cy="3813"
   r="380"
   id="circle76"
   style="fill:#ffffff;stroke:#000000;stroke-width:17.693;stroke-dasharray:none;stroke-opacity:1" />
  <circle
   class="fil9 str1"
   cx="10615"
   cy="3544"
   r="380"
   id="circle78"
   style="fill:#ffffff;stroke:#000000;stroke-width:17.693;stroke-dasharray:none;stroke-opacity:1" />
  <circle
   class="fil9 str1"
   cx="9034"
   cy="2734"
   r="380"
   id="circle80"
   style="fill:#ffffff;stroke:#000000;stroke-width:17.693;stroke-dasharray:none;stroke-opacity:1" />
  <circle
   class="fil1 str1"
   cx="8736"
   cy="7910"
   r="380"
   id="circle82"
   style="fill:#ffffff" />
  <circle
   class="fil1 str1"
   cx="10107"
   cy="7910"
   r="380"
   id="circle84"
   style="fill:#ffffff" />
  <circle
   class="fil1 str1"
   cx="11477"
   cy="7910"
   r="380"
   id="circle86"
   style="fill:#ffffff" />
  <circle
   class="fil10 str1"
   cx="12808"
   cy="7910"
   r="380"
   id="circle88"
   style="fill:#ffffff" />
  <circle
   class="fil2 str1"
   cx="6068"
   cy="9287"
   r="380"
   id="circle90"
   style="fill:#ffffff" />
  <circle
   class="fil2 str1"
   cx="4773"
   cy="9382"
   r="380"
   id="circle92"
   style="fill:#ffffff" />
  <circle
   class="fil2 str1"
   cx="3461"
   cy="9434"
   r="380"
   id="circle94"
   style="fill:#ffffff" />
  <circle
   class="fil3 str1"
   cx="2200"
   cy="9615"
   r="380"
   id="circle96"
   style="fill:#ffffff" />
  <circle
   class="fil3 str1"
   cx="870"
   cy="10038"
   r="380"
   id="circle98"
   style="fill:#ffffff" />
  <circle
   class="fil4 str1"
   cx="6267"
   cy="10677"
   r="380"
   id="circle100"
   style="fill:#ffffff" />
  <circle
   class="fil4 str1"
   cx="5092"
   cy="10755"
   r="380"
   id="circle102"
   style="fill:#ffffff" />
  <circle
   class="fil4 str1"
   cx="3979"
   cy="10884"
   r="380"
   id="circle104"
   style="fill:#ffffff" />
  <circle
   class="fil4 str1"
   cx="2951"
   cy="11135"
   r="380"
   id="circle106"
   style="fill:#ffffff" />
  <circle
   class="fil6 str1"
   cx="5688"
   cy="13121"
   r="380"
   id="circle108"
   style="fill:#ffffff" />
  <circle
   class="fil5 str1"
   cx="5720"
   cy="12093"
   r="380"
   id="circle110"
   style="fill:#ffffff" />
  <circle
   class="fil5 str1"
   cx="4151"
   cy="12344"
   r="380"
   id="circle112"
   style="fill:#ffffff" />
  <circle
   class="fil7 str1"
   cx="6068"
   cy="6567"
   r="380"
   id="circle114"
   style="fill:#ffffff;stroke:#000000;stroke-width:17.693;stroke-dasharray:none;stroke-opacity:1" />
  <circle
   class="fil7 str1"
   cx="4782"
   cy="6481"
   r="380"
   id="circle116"
   style="fill:#ffffff;stroke:#000000;stroke-width:17.693;stroke-dasharray:none;stroke-opacity:1" />
  <circle
   class="fil7 str1"
   cx="3478"
   cy="6412"
   r="380"
   id="circle118"
   style="fill:#ffffff;stroke:#000000;stroke-width:17.693;stroke-dasharray:none;stroke-opacity:1" />
  <circle
   class="fil8 str1"
   cx="2200"
   cy="6231"
   r="380"
   id="circle120"
   style="fill:#ffffff;stroke:#000000;stroke-width:17.693;stroke-dasharray:none;stroke-opacity:1" />
  <circle
   class="fil8 str1"
   cx="862"
   cy="5799"
   r="380"
   id="circle122"
   style="fill:#ffffff;stroke:#000000;stroke-width:17.693;stroke-dasharray:none;stroke-opacity:1" />
  <circle
   class="fil9 str1"
   cx="6249"
   cy="5177"
   r="380"
   id="circle124"
   style="fill:#ffffff;stroke:#000000;stroke-width:17.693;stroke-dasharray:none;stroke-opacity:1" />
  <circle
   class="fil9 str1"
   cx="5084"
   cy="5091"
   r="380"
   id="circle126"
   style="fill:#ffffff;stroke:#000000;stroke-width:17.693;stroke-dasharray:none;stroke-opacity:1" />
  <circle
   class="fil9 str1"
   cx="3970"
   cy="4961"
   r="380"
   id="circle128"
   style="fill:#ffffff;stroke:#000000;stroke-width:17.693;stroke-dasharray:none;stroke-opacity:1" />
  <circle
   class="fil9 str1"
   cx="2951"
   cy="4711"
   r="380"
   id="circle130"
   style="fill:#ffffff;stroke:#000000;stroke-width:17.693;stroke-dasharray:none;stroke-opacity:1" />
  <circle
   class="fil9 str1"
   cx="5688"
   cy="3813"
   r="380"
   id="circle132"
   style="fill:#ffffff;stroke:#000000;stroke-width:17.693;stroke-dasharray:none;stroke-opacity:1" />
  <circle
   class="fil9 str1"
   cx="4116"
   cy="3544"
   r="380"
   id="circle134"
   style="fill:#ffffff;stroke:#000000;stroke-width:17.693;stroke-dasharray:none;stroke-opacity:1" />
  <circle
   class="fil9 str1"
   cx="5697"
   cy="2734"
   r="380"
   id="circle136"
   style="fill:#ffffff;stroke:#000000;stroke-width:17.693;stroke-dasharray:none;stroke-opacity:1" />
  <circle
   class="fil1 str1"
   cx="5995"
   cy="7910"
   r="380"
   id="circle138"
   style="fill:#ffffff" />
  <circle
   class="fil1 str1"
   cx="4624"
   cy="7910"
   r="380"
   id="circle140"
   style="fill:#ffffff" />
  <circle
   class="fil1 str1"
   cx="3254"
   cy="7910"
   r="380"
   id="circle142"
   style="fill:#ffffff" />
  <circle
   class="fil10 str1"
   cx="1924"
   cy="7910"
   r="380"
   id="circle144"
   style="fill:#ffffff" />
  <path
   class="fil11"
   d="m 8660,8019 c 7,0 15,-1 22,-3 8,-2 14,-5 20,-10 6,-4 11,-10 14,-17 3,-7 5,-15 5,-22 h -28 c 0,5 -1,10 -5,15 -3,4 -7,7 -12,9 -6,2 -11,3 -16,3 -5,0 -9,-1 -14,-2 -4,-1 -8,-4 -11,-7 -3,-3 -6,-7 -7,-12 -1,-4 -2,-9 -2,-13 v -95 c 0,-4 1,-9 2,-13 1,-4 4,-8 7,-12 3,-3 7,-5 11,-6 5,-2 9,-2 14,-2 5,0 10,0 16,2 5,2 9,5 12,10 4,4 5,9 5,15 h 28 c 0,-8 -2,-15 -5,-22 -3,-7 -8,-13 -14,-18 -6,-5 -12,-8 -20,-10 -7,-1 -15,-2 -22,-2 -7,0 -13,0 -19,2 -7,1 -13,3 -18,7 -6,3 -10,8 -14,13 -4,5 -7,11 -8,17 -2,7 -3,13 -3,19 v 95 c 0,6 1,13 3,19 1,6 4,12 8,18 4,5 8,9 14,13 5,3 11,5 18,7 6,1 12,2 19,2 z"
   id="path146" />
  <path
   class="fil11"
   d="m 8763,8016 h 120 v -24 h -91 c 2,-9 5,-18 9,-26 5,-8 11,-15 18,-21 6,-6 14,-11 22,-16 7,-4 15,-10 22,-16 7,-6 12,-13 15,-21 4,-9 6,-18 6,-27 0,-8 -1,-16 -4,-23 -2,-8 -6,-15 -12,-20 -6,-6 -13,-10 -21,-12 -8,-2 -16,-3 -24,-3 -7,0 -15,1 -22,2 -7,2 -14,5 -20,10 -6,5 -11,11 -14,18 -3,7 -4,14 -4,22 h 27 c 0,-6 2,-11 5,-15 3,-5 7,-8 13,-10 5,-2 10,-2 15,-2 5,0 9,0 13,2 5,1 9,3 12,6 3,4 5,8 6,12 2,4 2,9 2,13 0,9 -2,18 -8,25 -5,8 -11,14 -19,18 -8,5 -16,10 -23,15 -8,5 -14,11 -20,18 -6,7 -11,14 -14,22 -4,9 -6,17 -7,26 -1,9 -2,18 -2,27 z"
   id="path148" />
  <path
   class="fil11"
   d="m 10033,8021 c 8,0 15,-1 23,-3 7,-2 14,-5 20,-10 6,-5 10,-10 14,-17 3,-8 4,-15 4,-22 h -27 c 0,5 -2,10 -5,14 -3,5 -8,8 -13,10 -5,2 -11,3 -16,3 -4,0 -9,-1 -13,-2 -5,-2 -8,-4 -12,-7 -3,-3 -5,-7 -7,-12 -1,-4 -2,-9 -2,-13 v -95 c 0,-4 1,-9 2,-13 2,-4 4,-8 7,-12 4,-3 7,-5 12,-7 4,-1 9,-2 13,-2 5,0 11,1 16,3 5,2 10,5 13,9 3,5 5,10 5,16 h 27 c 0,-8 -1,-15 -4,-22 -4,-7 -8,-13 -14,-18 -6,-5 -13,-8 -20,-10 -8,-1 -15,-2 -23,-2 -6,0 -13,0 -19,2 -6,1 -12,3 -18,7 -5,3 -10,7 -14,13 -4,5 -7,11 -8,17 -2,7 -2,13 -2,19 v 95 c 0,6 0,13 2,19 1,6 4,12 8,17 4,6 9,10 14,14 6,3 12,5 18,7 6,1 13,2 19,2 z"
   id="path150" />
  <path
   class="fil11"
   d="m 10165,7935 43,-80 v 80 z m 43,83 h 27 v -58 h 21 v -25 h -21 v -124 h -34 l -67,124 v 25 h 74 z"
   id="path152" />
  <path
   class="fil11"
   d="m 11400,8021 c 8,0 15,-1 22,-3 8,-2 15,-5 21,-10 6,-5 10,-10 13,-17 4,-8 5,-15 5,-22 h -28 c 0,5 -1,10 -4,14 -4,5 -8,8 -13,10 -5,2 -11,3 -16,3 -4,0 -9,-1 -13,-2 -5,-2 -9,-4 -12,-7 -3,-3 -5,-7 -7,-12 -1,-4 -2,-9 -2,-13 v -95 c 0,-4 1,-9 2,-13 2,-4 4,-8 7,-12 3,-3 7,-5 12,-7 4,-1 9,-2 13,-2 5,0 11,1 16,3 5,2 9,5 13,9 3,5 4,10 4,16 h 28 c 0,-8 -1,-15 -5,-22 -3,-7 -7,-13 -13,-18 -6,-5 -13,-8 -21,-10 -7,-1 -14,-2 -22,-2 -6,0 -13,0 -19,2 -6,1 -12,3 -18,7 -5,3 -10,7 -14,13 -4,5 -7,11 -8,17 -2,7 -2,13 -2,19 v 95 c 0,6 0,13 2,19 1,6 4,12 8,17 4,6 9,10 14,14 6,3 12,5 18,7 6,1 13,2 19,2 z"
   id="path154" />
  <path
   class="fil11"
   d="m 11563,8021 c 7,0 14,-1 21,-3 6,-1 13,-4 18,-8 6,-5 10,-10 14,-16 4,-5 6,-12 7,-19 2,-6 2,-13 2,-20 0,-9 -1,-17 -3,-25 -2,-9 -6,-16 -12,-22 -6,-7 -13,-12 -21,-14 -8,-3 -17,-4 -25,-4 -7,0 -14,0 -19,2 3,-5 7,-11 11,-18 l 37,-63 h -31 l -30,50 c -5,9 -10,18 -15,27 -5,9 -9,19 -12,29 -2,10 -4,20 -4,30 0,8 1,15 2,22 1,7 4,14 7,21 3,6 8,12 13,17 6,5 12,8 19,10 7,3 14,4 21,4 z m 0,-25 h -1 l -1,-1 c -5,0 -10,-1 -14,-3 -5,-2 -8,-5 -11,-9 -3,-4 -5,-9 -6,-14 -1,-4 -1,-9 -1,-14 0,-5 0,-10 2,-15 1,-5 3,-10 6,-14 3,-4 7,-7 12,-9 5,-2 10,-3 15,-3 4,0 9,1 14,3 5,2 9,5 12,9 3,4 5,9 6,14 1,5 2,10 2,15 0,5 -1,10 -2,15 -1,5 -3,9 -6,14 -3,4 -7,7 -12,9 -5,2 -10,3 -15,3 z"
   id="path156" />
  <polygon
   class="fil11"
   points="12799,7809 12673,7809 12673,7834 12722,7834 12722,8016 12750,8016 12750,7834 12799,7834 "
   id="polygon158" />
  <path
   class="fil11"
   d="m 12899,8019 c 7,0 15,-1 22,-3 8,-2 14,-5 21,-9 6,-4 11,-10 14,-17 3,-7 5,-15 5,-22 0,-22 -13,-41 -38,-57 22,-15 33,-33 33,-53 0,-8 -1,-15 -4,-22 -3,-6 -7,-12 -13,-17 -6,-5 -12,-8 -19,-10 -7,-1 -14,-2 -21,-2 -7,0 -15,1 -22,2 -7,2 -13,5 -19,10 -5,5 -9,11 -12,17 -3,7 -4,14 -4,22 0,20 11,38 33,53 -26,16 -38,35 -38,57 0,7 1,15 5,22 3,7 8,13 14,17 6,4 13,7 20,9 8,2 15,3 23,3 z m 0,-25 c -6,0 -11,-1 -16,-2 -6,-2 -10,-5 -14,-9 -3,-5 -5,-10 -5,-15 0,-7 2,-13 6,-18 3,-6 8,-10 13,-14 5,-4 10,-8 16,-11 5,3 10,7 16,11 5,4 9,8 13,14 3,5 5,11 5,18 0,5 -2,10 -5,15 -4,4 -8,7 -13,9 -5,1 -11,2 -16,2 z m 0,-97 c -20,-12 -30,-25 -30,-39 0,-6 2,-10 4,-15 3,-4 7,-7 11,-9 5,-2 10,-2 15,-2 5,0 9,0 14,2 5,2 9,5 11,9 3,5 4,9 4,15 0,14 -10,27 -29,39 z"
   id="path160" />
  <path
   class="fil11"
   d="m 5920,8021 c 8,0 15,-1 23,-3 7,-2 14,-5 20,-10 6,-5 10,-10 14,-17 3,-8 4,-15 4,-22 h -27 c 0,5 -2,10 -5,14 -3,5 -8,8 -13,10 -5,2 -10,3 -16,3 -4,0 -9,-1 -13,-2 -5,-2 -8,-4 -12,-7 -3,-3 -5,-7 -7,-12 -1,-4 -2,-9 -2,-13 v -95 c 0,-4 1,-9 2,-13 2,-4 4,-8 7,-12 4,-3 7,-5 12,-7 4,-1 9,-2 13,-2 6,0 11,1 16,3 5,2 10,5 13,9 3,5 5,10 5,16 h 27 c 0,-8 -1,-15 -4,-22 -4,-7 -8,-13 -14,-18 -6,-5 -13,-8 -20,-10 -8,-1 -15,-2 -23,-2 -6,0 -13,0 -19,2 -6,1 -12,3 -18,7 -5,3 -10,7 -14,13 -4,5 -7,11 -8,17 -2,7 -2,13 -2,19 v 95 c 0,6 0,13 2,19 1,6 4,12 8,17 4,6 9,10 14,14 6,3 12,5 18,7 6,1 13,2 19,2 z"
   id="path162" />
  <polygon
   class="fil11"
   points="6045,7867 6078,7843 6078,8018 6106,8018 6106,7811 6078,7811 6028,7847 "
   id="polygon164" />
  <path
   class="fil11"
   d="m 4554,8021 c 7,0 15,-1 22,-3 7,-2 14,-5 20,-10 6,-5 11,-10 14,-17 3,-8 5,-15 5,-22 h -28 c 0,5 -2,10 -5,14 -3,5 -7,8 -13,10 -5,2 -10,3 -15,3 -5,0 -9,-1 -14,-2 -4,-2 -8,-4 -11,-7 -4,-3 -6,-7 -7,-12 -2,-4 -2,-9 -2,-13 v -95 c 0,-4 0,-9 2,-13 1,-4 3,-8 7,-12 3,-3 7,-5 11,-7 5,-1 9,-2 14,-2 5,0 10,1 15,3 6,2 10,5 13,9 3,5 5,10 5,16 h 28 c 0,-8 -2,-15 -5,-22 -3,-7 -8,-13 -14,-18 -6,-5 -13,-8 -20,-10 -7,-1 -15,-2 -22,-2 -7,0 -13,0 -20,2 -6,1 -12,3 -18,7 -5,3 -10,7 -14,13 -4,5 -6,11 -8,17 -1,7 -2,13 -2,19 v 95 c 0,6 1,13 2,19 2,6 4,12 8,17 4,6 9,10 14,14 6,3 12,5 18,7 7,1 13,2 20,2 z"
   id="path166" />
  <path
   class="fil11"
   d="m 4717,8021 c 8,0 16,-1 24,-4 8,-2 15,-5 21,-11 7,-5 11,-11 14,-19 3,-7 5,-15 5,-23 0,-8 -1,-15 -4,-22 -3,-7 -8,-14 -13,-19 -6,-5 -12,-9 -19,-12 6,-2 12,-6 17,-11 4,-5 8,-11 11,-18 2,-6 4,-13 4,-19 0,-8 -2,-15 -5,-22 -3,-8 -7,-14 -13,-19 -5,-5 -12,-8 -19,-10 -8,-2 -15,-3 -22,-3 -8,0 -15,1 -22,2 -8,2 -14,5 -20,10 -6,5 -10,11 -13,17 -3,7 -4,14 -4,22 v 0 h 27 v 0 c 0,-5 2,-10 5,-15 2,-4 6,-7 11,-9 5,-2 10,-3 16,-3 5,0 10,2 15,4 5,2 9,5 12,10 3,5 4,10 4,16 0,5 -1,11 -4,16 -3,5 -6,9 -11,13 -5,3 -10,5 -15,6 -6,1 -12,1 -17,1 v 25 c 6,0 12,1 18,1 6,1 12,4 17,7 5,4 9,8 12,14 3,5 4,11 4,17 0,6 -1,12 -4,18 -3,5 -8,9 -14,11 -6,3 -12,4 -18,4 -5,0 -11,-1 -16,-3 -6,-1 -10,-5 -14,-10 -4,-4 -5,-10 -5,-15 h -28 c 0,8 2,15 5,22 3,7 8,13 15,18 6,5 13,8 20,10 8,2 16,3 23,3 z"
   id="path168" />
  <path
   class="fil11"
   d="m 3180,8021 c 7,0 15,-1 22,-3 7,-2 14,-5 20,-10 6,-5 11,-10 14,-17 3,-8 5,-15 5,-22 h -28 c 0,5 -1,10 -5,14 -3,5 -7,8 -12,10 -6,2 -11,3 -16,3 -5,0 -9,-1 -14,-2 -4,-2 -8,-4 -11,-7 -3,-3 -6,-7 -7,-12 -1,-4 -2,-9 -2,-13 v -95 c 0,-4 1,-9 2,-13 1,-4 4,-8 7,-12 3,-3 7,-5 11,-7 5,-1 9,-2 14,-2 5,0 10,1 16,3 5,2 9,5 12,9 4,5 5,10 5,16 h 28 c 0,-8 -2,-15 -5,-22 -3,-7 -8,-13 -14,-18 -6,-5 -13,-8 -20,-10 -7,-1 -15,-2 -22,-2 -7,0 -13,0 -19,2 -7,1 -13,3 -18,7 -6,3 -11,7 -14,13 -4,5 -7,11 -8,17 -2,7 -3,13 -3,19 v 95 c 0,6 1,13 3,19 1,6 4,12 8,17 3,6 8,10 14,14 5,3 11,5 18,7 6,1 12,2 19,2 z"
   id="path170" />
  <path
   class="fil11"
   d="m 3343,8021 c 7,0 14,-1 21,-3 7,-2 13,-5 19,-10 5,-4 10,-9 13,-16 3,-6 6,-12 7,-19 1,-7 2,-14 2,-21 0,0 0,0 0,0 0,0 0,0 0,0 0,-7 -1,-14 -2,-21 -1,-7 -3,-13 -7,-19 -3,-7 -7,-12 -13,-16 -5,-5 -11,-8 -18,-10 -7,-2 -14,-3 -21,-3 -12,0 -22,2 -31,7 v -54 h 84 v -25 h -111 v 123 h 27 c 1,-5 2,-9 5,-14 3,-4 7,-7 12,-9 4,-2 9,-3 14,-3 6,0 11,1 15,4 5,2 9,6 11,10 3,5 5,9 6,14 1,6 1,11 1,16 0,0 0,0 0,0 0,0 0,0 0,0 0,5 0,10 -1,15 -1,6 -3,10 -6,15 -3,4 -7,8 -12,10 -4,3 -9,4 -15,4 -5,0 -11,-1 -16,-4 -5,-2 -9,-6 -12,-11 -3,-5 -5,-10 -5,-15 h -27 c 0,7 1,14 4,22 3,7 8,13 14,18 5,6 12,9 20,11 7,3 15,4 22,4 z"
   id="path172" />
  <polygon
   class="fil11"
   points="1908,7811 1782,7811 1782,7836 1831,7836 1831,8018 1859,8018 1859,7836 1908,7836 "
   id="polygon174" />
  <polygon
   class="fil11"
   points="1948,7836 2037,7836 1966,8018 1996,8018 2067,7836 2067,7811 1948,7811 "
   id="polygon176" />
  <polygon
   class="fil11"
   points="2103,9513 1977,9513 1977,9538 2026,9538 2026,9721 2054,9721 2054,9538 2103,9538 "
   id="polygon178" />
  <path
   class="fil11"
   d="m 2148,9721 h 28 v -82 h 30 c 7,0 13,-1 20,-3 6,-1 12,-4 18,-8 5,-4 10,-8 13,-14 4,-6 6,-12 8,-18 1,-7 2,-14 2,-20 0,-7 -1,-13 -2,-20 -2,-6 -4,-12 -8,-18 -3,-6 -8,-10 -13,-14 -6,-4 -12,-7 -18,-8 -7,-2 -13,-3 -20,-3 h -58 z m 28,-107 v -76 h 30 c 5,0 9,1 14,3 4,2 8,4 11,8 3,4 5,8 6,13 1,5 2,9 2,14 0,5 -1,10 -2,14 -1,5 -3,9 -6,13 -3,3 -7,6 -11,8 -5,2 -9,3 -14,3 z"
   id="path180" />
  <polygon
   class="fil11"
   points="2305,9538 2395,9538 2324,9721 2354,9721 2425,9538 2425,9513 2305,9513 "
   id="polygon182" />
  <path
   class="fil11"
   d="m 3306,9545 c 7,0 15,-1 22,-3 7,-2 14,-5 20,-10 6,-4 11,-10 14,-17 3,-7 5,-15 5,-22 h -28 c 0,5 -2,10 -5,15 -3,4 -7,8 -12,9 -6,2 -11,3 -16,3 -5,0 -9,-1 -14,-2 -4,-1 -8,-4 -11,-7 -3,-3 -6,-7 -7,-11 -1,-5 -2,-9 -2,-14 v -94 c 0,-5 1,-9 2,-14 1,-4 4,-8 7,-11 3,-4 7,-6 11,-7 5,-2 9,-2 14,-2 5,0 10,1 16,2 5,2 9,5 12,10 3,4 5,9 5,15 h 28 c 0,-8 -2,-15 -5,-22 -3,-7 -8,-13 -14,-18 -6,-4 -13,-8 -20,-9 -7,-2 -15,-3 -22,-3 -7,0 -13,1 -20,2 -6,1 -12,4 -17,7 -6,3 -11,8 -14,13 -4,5 -7,11 -8,18 -2,6 -3,12 -3,19 v 94 c 0,7 1,13 3,19 1,7 4,12 8,18 3,5 8,9 14,13 5,3 11,6 17,7 7,1 13,2 20,2 z"
   id="path184" />
  <path
   class="fil11"
   d="m 3414,9543 h 28 v -83 h 31 c 6,0 13,-1 19,-2 7,-2 13,-4 18,-8 6,-4 10,-9 14,-14 3,-6 6,-12 7,-19 2,-6 2,-13 2,-19 0,-7 0,-14 -2,-20 -1,-7 -4,-13 -7,-18 -4,-6 -8,-11 -14,-15 -5,-3 -11,-6 -18,-8 -6,-1 -13,-2 -19,-2 h -59 z m 28,-108 v -75 h 31 c 4,0 9,1 13,3 5,1 9,4 12,8 3,4 5,8 6,13 1,4 2,9 2,14 0,4 -1,9 -2,14 -1,4 -3,9 -6,12 -3,4 -7,7 -12,9 -4,1 -9,2 -13,2 z"
   id="path186" />
  <path
   class="fil11"
   d="m 3632,9545 c 7,0 14,-1 20,-3 7,-2 14,-5 19,-9 6,-5 10,-10 14,-16 3,-7 5,-13 7,-20 1,-7 2,-14 2,-21 0,0 0,0 0,0 0,0 0,0 0,0 0,-7 -1,-14 -2,-20 -2,-7 -4,-14 -7,-20 -4,-6 -8,-12 -13,-16 -6,-5 -12,-8 -19,-10 -6,-2 -13,-3 -20,-3 -12,0 -23,3 -31,7 v -54 h 83 v -25 h -111 v 124 h 28 c 0,-5 2,-10 4,-14 3,-5 7,-8 12,-10 5,-2 10,-2 15,-2 5,0 10,1 15,3 5,2 8,6 11,10 3,5 5,10 5,15 1,5 2,10 2,15 0,0 0,0 0,0 0,0 0,0 0,0 0,5 -1,11 -2,16 -1,5 -3,10 -5,14 -3,5 -7,8 -12,11 -5,2 -10,3 -15,3 -6,0 -11,-1 -16,-3 -6,-3 -10,-6 -13,-11 -3,-5 -4,-11 -4,-16 h -28 c 0,7 2,15 5,22 3,7 7,14 13,19 6,5 13,9 20,11 7,2 15,3 23,3 z"
   id="path188" />
  <path
   class="fil11"
   d="m 4618,9493 c 8,0 15,-1 23,-3 7,-1 14,-5 20,-9 6,-5 10,-11 14,-18 3,-7 4,-14 4,-22 h -27 c 0,5 -2,10 -5,15 -3,5 -8,8 -13,10 -5,1 -11,2 -16,2 -4,0 -9,0 -13,-2 -5,-1 -8,-3 -12,-7 -3,-3 -5,-7 -7,-11 -1,-5 -2,-9 -2,-14 v -94 c 0,-5 1,-9 2,-14 2,-4 4,-8 7,-11 4,-3 7,-6 12,-7 4,-1 9,-2 13,-2 5,0 11,1 16,3 5,1 10,4 13,9 3,5 5,10 5,15 h 27 c 0,-7 -1,-15 -4,-22 -4,-7 -8,-13 -14,-17 -6,-5 -13,-8 -20,-10 -8,-2 -15,-3 -23,-3 -6,0 -13,1 -19,2 -6,1 -12,4 -18,7 -5,4 -10,8 -14,13 -4,6 -7,11 -8,18 -2,6 -2,12 -2,19 v 94 c 0,7 0,13 2,19 1,7 4,13 8,18 4,5 9,10 14,13 6,3 12,6 18,7 6,1 13,2 19,2 z"
   id="path190" />
  <path
   class="fil11"
   d="m 4727,9491 h 28 v -83 h 30 c 7,0 13,0 20,-2 6,-1 12,-4 18,-8 5,-4 10,-9 13,-14 4,-6 6,-12 8,-18 1,-7 2,-14 2,-20 0,-7 -1,-13 -2,-20 -2,-6 -4,-12 -8,-18 -3,-6 -8,-10 -13,-14 -6,-4 -12,-7 -18,-8 -7,-2 -13,-3 -20,-3 h -58 z m 28,-107 v -76 h 30 c 5,0 9,1 14,3 4,1 8,4 11,8 3,4 5,8 6,13 1,4 2,9 2,14 0,5 -1,9 -2,14 -1,5 -3,9 -6,13 -3,3 -7,6 -11,8 -5,2 -9,3 -14,3 z"
   id="path192" />
  <path
   class="fil11"
   d="m 4944,9493 c 9,0 17,-1 24,-3 8,-2 15,-6 22,-11 6,-5 10,-12 14,-19 3,-8 4,-16 4,-24 0,-7 -1,-15 -4,-22 -3,-7 -7,-13 -13,-18 -6,-6 -12,-10 -19,-12 6,-3 12,-7 17,-12 5,-5 8,-11 11,-17 2,-7 4,-13 4,-20 0,-7 -2,-15 -5,-22 -2,-7 -7,-13 -12,-18 -6,-5 -13,-9 -20,-11 -7,-2 -15,-3 -22,-3 -8,0 -15,1 -22,3 -7,2 -14,5 -20,10 -5,4 -10,10 -13,17 -3,7 -4,14 -4,21 v 0 h 27 v 0 c 0,-5 2,-10 5,-14 3,-5 7,-8 12,-9 4,-2 9,-3 15,-3 5,0 10,1 15,3 6,2 9,6 12,11 3,5 4,10 4,15 0,6 -1,11 -4,17 -3,5 -6,9 -11,12 -4,3 -9,5 -15,6 -6,1 -11,2 -17,2 v 25 c 6,0 12,0 18,1 7,1 12,3 17,7 5,3 9,8 12,13 3,6 5,12 5,18 0,6 -2,12 -5,17 -3,6 -8,10 -13,12 -6,2 -12,3 -19,3 -5,0 -11,-1 -16,-2 -6,-2 -10,-5 -14,-10 -3,-5 -5,-10 -5,-16 h -28 c 0,8 2,15 5,23 4,7 9,13 15,18 6,4 13,8 21,9 7,2 15,3 22,3 z"
   id="path194" />
  <path
   class="fil11"
   d="m 5913,9398 c 7,0 15,-1 22,-3 7,-1 14,-5 20,-9 6,-5 11,-11 14,-18 3,-7 5,-14 5,-22 h -28 c 0,5 -1,10 -5,15 -3,5 -7,8 -12,10 -6,1 -11,2 -16,2 -5,0 -9,0 -14,-2 -4,-1 -8,-3 -11,-7 -3,-3 -6,-7 -7,-11 -1,-5 -2,-9 -2,-14 v -94 c 0,-5 1,-9 2,-14 1,-4 4,-8 7,-11 3,-3 7,-6 11,-7 5,-1 9,-2 14,-2 5,0 10,1 16,3 5,1 9,4 12,9 4,5 5,10 5,15 h 28 c 0,-7 -2,-15 -5,-22 -3,-7 -8,-13 -14,-17 -6,-5 -13,-8 -20,-10 -7,-2 -15,-3 -22,-3 -7,0 -13,1 -20,2 -6,1 -12,4 -17,7 -6,4 -11,8 -14,13 -4,6 -7,12 -8,18 -2,6 -3,12 -3,19 v 94 c 0,7 1,13 3,19 1,7 4,13 8,18 3,5 8,10 14,13 5,3 11,6 17,7 7,1 13,2 20,2 z"
   id="path196" />
  <path
   class="fil11"
   d="m 6021,9396 h 28 v -83 h 31 c 6,0 13,0 19,-2 7,-1 13,-4 18,-8 6,-4 10,-8 14,-14 3,-6 6,-12 7,-18 2,-7 2,-14 2,-20 0,-7 0,-13 -2,-20 -1,-6 -4,-12 -7,-18 -4,-6 -8,-10 -14,-14 -5,-4 -11,-7 -18,-8 -6,-2 -13,-3 -19,-3 h -59 z m 28,-107 v -76 h 31 c 4,0 9,1 13,3 5,1 9,4 12,8 3,4 5,8 6,13 1,4 2,9 2,14 0,5 -1,9 -2,14 -1,5 -3,9 -6,13 -3,3 -7,6 -12,8 -4,2 -9,3 -13,3 z"
   id="path198" />
  <polygon
   class="fil11"
   points="6200,9245 6233,9220 6233,9396 6261,9396 6261,9188 6233,9188 6183,9224 "
   id="polygon200" />
  <path
   class="fil11"
   d="m 7213,9372 c 8,0 15,-1 23,-2 7,-2 14,-6 20,-10 6,-5 11,-11 14,-18 3,-7 4,-14 4,-22 h -27 c 0,6 -2,10 -5,15 -3,5 -8,8 -13,10 -5,1 -10,2 -16,2 -4,0 -9,0 -13,-2 -4,-1 -8,-3 -12,-7 -3,-3 -5,-7 -6,-11 -2,-5 -2,-9 -2,-14 v -94 c 0,-5 0,-9 2,-13 1,-5 3,-9 6,-12 4,-3 8,-6 12,-7 4,-1 9,-2 13,-2 6,0 11,1 16,3 5,1 10,4 13,9 3,5 5,10 5,15 h 27 c 0,-7 -1,-15 -4,-22 -3,-7 -8,-13 -14,-17 -6,-5 -13,-8 -20,-10 -8,-2 -15,-3 -23,-3 -6,0 -13,1 -19,2 -6,2 -12,4 -18,7 -5,4 -10,8 -14,13 -4,6 -6,12 -8,18 -1,6 -2,13 -2,19 v 94 c 0,7 1,13 2,20 2,6 4,12 8,17 4,5 9,10 14,13 6,4 12,6 18,7 6,2 13,2 19,2 z"
   id="path202" />
  <path
   class="fil11"
   d="m 7322,9370 h 28 v -82 h 30 c 7,0 13,-1 20,-3 6,-1 12,-4 18,-8 5,-4 10,-8 13,-14 4,-6 6,-12 8,-18 1,-7 2,-14 2,-20 0,-7 -1,-13 -2,-20 -2,-6 -4,-12 -8,-18 -3,-6 -8,-10 -13,-14 -6,-4 -12,-7 -18,-8 -7,-2 -13,-3 -20,-3 h -58 z m 28,-107 v -76 h 30 c 5,0 10,1 14,3 5,2 8,4 11,8 3,4 5,8 7,13 1,5 1,9 1,14 0,5 0,10 -1,14 -2,5 -4,9 -7,13 -3,3 -6,6 -11,8 -4,2 -9,3 -14,3 z"
   id="path204" />
  <polygon
   class="fil11"
   points="7599,9345 7513,9345 7599,9245 7599,9220 7479,9220 7479,9245 7566,9245 7479,9345 7479,9370 7599,9370 "
   id="polygon206" />
  <path
   class="fil11"
   d="m 8507,9398 c 7,0 15,-1 22,-3 8,-1 14,-5 20,-9 7,-5 11,-11 14,-18 3,-7 5,-14 5,-22 h -28 c 0,5 -1,10 -5,15 -3,5 -7,8 -12,10 -6,1 -11,2 -16,2 -5,0 -9,0 -13,-2 -5,-1 -9,-3 -12,-7 -3,-3 -6,-7 -7,-11 -1,-5 -2,-9 -2,-14 v -94 c 0,-5 1,-9 2,-14 1,-4 4,-8 7,-11 3,-3 7,-6 12,-7 4,-1 8,-2 13,-2 5,0 10,1 16,3 5,1 9,4 12,9 4,5 5,10 5,15 h 28 c 0,-7 -2,-15 -5,-22 -3,-7 -7,-13 -14,-17 -6,-5 -12,-8 -20,-10 -7,-2 -15,-3 -22,-3 -7,0 -13,1 -19,2 -7,1 -13,4 -18,7 -6,4 -10,8 -14,13 -4,6 -7,12 -8,18 -2,6 -3,12 -3,19 v 94 c 0,7 1,13 3,19 1,7 4,13 8,18 4,5 8,10 14,13 5,3 11,6 18,7 6,1 12,2 19,2 z"
   id="path208" />
  <path
   class="fil11"
   d="m 8616,9396 h 27 v -83 h 31 c 6,0 13,0 19,-2 7,-1 13,-4 18,-8 6,-4 10,-8 14,-14 3,-6 6,-12 7,-18 2,-7 2,-14 2,-20 0,-7 0,-13 -2,-20 -1,-6 -4,-12 -7,-18 -4,-6 -8,-10 -14,-14 -5,-4 -11,-7 -18,-8 -6,-2 -13,-3 -19,-3 h -58 z m 27,-107 v -76 h 31 c 4,0 9,1 14,3 4,1 8,4 11,8 3,4 5,8 6,13 1,4 2,9 2,14 0,5 -1,9 -2,14 -1,5 -3,9 -6,13 -3,3 -7,6 -11,8 -5,2 -10,3 -14,3 z"
   id="path210" />
  <path
   class="fil11"
   d="m 8773,9396 h 119 v -25 h -90 c 1,-9 4,-18 9,-26 4,-8 10,-14 17,-20 7,-6 14,-12 22,-16 8,-5 15,-10 22,-16 7,-6 12,-13 16,-22 4,-8 6,-17 6,-26 0,-8 -2,-16 -4,-24 -3,-8 -7,-14 -13,-20 -6,-6 -13,-9 -21,-12 -7,-2 -15,-3 -23,-3 -8,0 -15,1 -22,3 -8,2 -14,5 -20,10 -6,4 -11,10 -14,17 -3,7 -5,15 -5,22 h 28 c 0,-5 2,-10 5,-15 3,-5 7,-8 12,-9 5,-2 10,-3 16,-3 4,0 9,1 13,2 4,1 8,4 11,7 4,3 6,7 7,11 1,5 2,9 2,14 0,9 -3,17 -8,25 -5,7 -12,13 -20,18 -8,4 -15,9 -23,14 -7,5 -14,11 -19,18 -6,7 -11,15 -15,23 -4,8 -6,17 -7,26 -1,9 -1,18 -1,27 z"
   id="path212" />
  <path
   class="fil11"
   d="m 9803,9493 c 8,0 15,-1 23,-3 7,-1 14,-5 20,-9 6,-5 11,-11 14,-18 3,-7 4,-14 4,-22 h -27 c 0,5 -2,10 -5,15 -3,5 -7,8 -13,10 -5,1 -10,2 -16,2 -4,0 -9,0 -13,-2 -4,-1 -8,-3 -12,-7 -3,-3 -5,-7 -6,-11 -2,-5 -2,-9 -2,-14 v -94 c 0,-5 0,-9 2,-14 1,-4 3,-8 6,-11 4,-3 8,-6 12,-7 4,-1 9,-2 13,-2 6,0 11,1 16,3 6,1 10,4 13,9 3,5 5,10 5,15 h 27 c 0,-7 -1,-15 -4,-22 -3,-7 -8,-13 -14,-17 -6,-5 -13,-8 -20,-10 -8,-2 -15,-3 -23,-3 -6,0 -13,1 -19,2 -6,1 -12,4 -18,7 -5,4 -10,8 -14,13 -4,6 -6,11 -8,18 -1,6 -2,12 -2,19 v 94 c 0,7 1,13 2,19 2,7 4,13 8,18 4,5 9,10 14,13 6,3 12,6 18,7 6,1 13,2 19,2 z"
   id="path214" />
  <path
   class="fil11"
   d="m 9912,9491 h 28 v -83 h 30 c 7,0 13,0 20,-2 6,-1 12,-4 18,-8 5,-4 10,-9 13,-14 4,-6 6,-12 8,-18 1,-7 2,-14 2,-20 0,-7 -1,-13 -2,-20 -2,-6 -4,-12 -8,-18 -3,-6 -8,-10 -13,-14 -6,-4 -12,-7 -18,-8 -7,-2 -13,-3 -20,-3 h -58 z m 28,-107 v -76 h 30 c 5,0 10,1 14,3 5,1 8,4 11,8 3,4 5,8 7,13 1,4 1,9 1,14 0,5 0,9 -1,14 -2,5 -4,9 -7,13 -3,3 -6,6 -11,8 -4,2 -9,3 -14,3 z"
   id="path216" />
  <path
   class="fil11"
   d="m 10098,9408 42,-80 v 80 z m 42,83 h 28 v -58 h 21 v -25 h -21 v -125 h -35 l -66,125 v 25 h 73 z"
   id="path218" />
  <path
   class="fil11"
   d="m 11112,9545 c 8,0 15,-1 23,-3 7,-2 14,-5 20,-10 6,-4 10,-10 14,-17 3,-7 4,-15 4,-22 h -27 c 0,5 -2,10 -5,15 -3,4 -8,8 -13,9 -5,2 -10,3 -16,3 -4,0 -9,-1 -13,-2 -5,-1 -8,-4 -12,-7 -3,-3 -5,-7 -7,-11 -1,-5 -2,-9 -2,-14 v -94 c 0,-5 1,-9 2,-14 2,-4 4,-8 7,-11 4,-4 7,-6 12,-7 4,-2 9,-2 13,-2 6,0 11,1 16,2 5,2 10,5 13,10 3,4 5,9 5,15 h 27 c 0,-8 -1,-15 -4,-22 -4,-7 -8,-13 -14,-18 -6,-4 -13,-8 -20,-9 -8,-2 -15,-3 -23,-3 -6,0 -13,1 -19,2 -6,1 -12,4 -18,7 -5,3 -10,8 -14,13 -4,5 -7,11 -8,18 -2,6 -2,12 -2,19 v 94 c 0,7 0,13 2,19 1,7 4,12 8,18 4,5 9,9 14,13 6,3 12,6 18,7 6,1 13,2 19,2 z"
   id="path220" />
  <path
   class="fil11"
   d="m 11221,9543 h 28 v -83 h 30 c 7,0 13,-1 20,-2 6,-2 12,-4 18,-8 5,-4 10,-9 13,-14 4,-6 6,-12 8,-19 1,-6 2,-13 2,-19 0,-7 -1,-14 -2,-20 -2,-7 -4,-13 -8,-18 -3,-6 -8,-11 -13,-15 -6,-3 -12,-6 -18,-8 -7,-1 -13,-2 -20,-2 h -58 z m 28,-108 v -75 h 30 c 5,0 9,1 14,3 4,1 8,4 11,8 3,4 5,8 6,13 2,4 2,9 2,14 0,4 0,9 -2,14 -1,4 -3,9 -6,12 -3,4 -7,7 -11,9 -5,1 -9,2 -14,2 z"
   id="path222" />
  <path
   class="fil11"
   d="m 11438,9545 c 7,0 14,-1 20,-3 7,-1 13,-4 19,-8 5,-4 10,-9 14,-15 3,-6 6,-12 7,-19 1,-7 2,-14 2,-21 0,-8 -1,-17 -3,-25 -3,-8 -7,-16 -12,-22 -6,-7 -13,-11 -22,-14 -8,-3 -16,-4 -24,-4 -8,0 -14,1 -19,2 3,-5 7,-11 11,-18 l 36,-63 h -31 l -29,51 c -5,9 -10,18 -15,27 -5,9 -9,18 -12,28 -3,10 -4,20 -4,31 0,7 0,14 2,22 1,7 3,14 6,20 4,7 8,12 14,17 5,5 12,9 19,11 7,2 14,3 21,3 z m 0,-25 h -1 -2 c -4,0 -9,-2 -14,-4 -4,-2 -8,-5 -10,-9 -3,-4 -5,-9 -6,-13 -1,-5 -1,-10 -1,-15 0,-5 0,-10 1,-15 1,-5 3,-9 7,-13 3,-5 7,-8 11,-9 5,-2 10,-3 15,-3 5,0 10,1 15,3 5,1 8,4 11,9 3,4 6,8 7,13 1,5 1,10 1,15 0,5 0,10 -1,15 -1,5 -4,10 -7,14 -3,4 -6,7 -11,9 -5,2 -10,3 -15,3 z"
   id="path224" />
  <polygon
   class="fil11"
   points="12438,9517 12312,9517 12312,9541 12361,9541 12361,9724 12389,9724 12389,9541 12438,9541 "
   id="polygon226" />
  <path
   class="fil11"
   d="m 12483,9724 h 28 v -82 h 30 c 7,0 13,-1 20,-3 6,-1 12,-4 18,-8 5,-4 10,-8 13,-14 4,-6 6,-12 8,-18 1,-7 2,-14 2,-20 0,-7 -1,-13 -2,-20 -2,-6 -4,-12 -8,-18 -3,-6 -8,-10 -13,-14 -6,-4 -12,-7 -18,-8 -7,-2 -13,-2 -20,-2 h -58 z m 28,-107 v -76 h 30 c 5,0 9,1 14,3 4,2 8,4 11,8 3,4 5,8 6,13 2,5 2,9 2,14 0,5 0,10 -2,14 -1,5 -3,9 -6,13 -3,3 -7,6 -11,8 -5,2 -9,3 -14,3 z"
   id="path228" />
  <path
   class="fil11"
   d="m 12700,9726 c 8,0 15,-1 22,-2 8,-2 15,-5 21,-10 6,-4 11,-10 14,-17 4,-7 5,-14 5,-22 0,-22 -13,-41 -38,-56 22,-15 33,-33 33,-54 0,-7 -1,-14 -4,-21 -3,-7 -7,-13 -13,-17 -5,-5 -12,-8 -19,-10 -7,-2 -14,-3 -21,-3 -7,0 -14,1 -21,3 -7,2 -14,5 -19,10 -6,4 -10,10 -13,17 -3,7 -4,14 -4,21 0,21 11,39 33,54 -25,15 -38,34 -38,56 0,8 2,15 5,22 3,7 8,13 14,17 6,5 13,8 21,10 7,1 14,2 22,2 z m 0,-25 c -5,0 -11,0 -16,-2 -5,-1 -10,-4 -13,-9 -4,-4 -5,-9 -5,-15 0,-6 1,-12 5,-18 4,-5 8,-10 13,-14 5,-3 11,-7 16,-10 5,3 11,7 16,10 5,4 10,9 13,14 4,6 5,12 5,18 0,6 -1,11 -5,15 -3,5 -8,8 -13,9 -5,2 -11,2 -16,2 z m 0,-96 c -20,-12 -29,-25 -29,-40 0,-5 1,-10 4,-14 2,-4 6,-7 11,-9 4,-2 9,-3 14,-3 5,0 10,1 15,3 4,2 8,5 11,9 2,4 4,9 4,14 0,15 -10,28 -30,40 z"
   id="path230" />
  <polygon
   class="fil11"
   points="13687,9938 13561,9938 13561,9963 13610,9963 13610,10145 13638,10145 13638,9963 13687,9963 "
   id="polygon232" />
  <path
   class="fil11"
   d="m 13732,10145 h 28 v -82 h 30 c 7,0 14,-1 20,-2 7,-2 12,-4 18,-8 5,-4 10,-9 13,-15 4,-5 7,-11 8,-18 1,-6 2,-13 2,-20 0,-6 -1,-13 -2,-19 -1,-7 -4,-13 -8,-18 -3,-6 -8,-11 -13,-15 -6,-4 -11,-6 -18,-8 -6,-1 -13,-2 -20,-2 h -58 z m 28,-107 v -75 h 30 c 5,0 10,1 14,2 5,2 9,5 12,9 3,4 5,8 6,12 1,5 1,10 1,14 0,5 0,10 -1,15 -1,4 -3,8 -6,12 -3,4 -7,7 -12,9 -4,1 -9,2 -14,2 z"
   id="path234" />
  <polygon
   class="fil11"
   points="13911,9994 13944,9970 13944,10145 13972,10145 13972,9938 13944,9938 13894,9974 "
   id="polygon236" />
  <path
   class="fil11"
   d="m 14112,10148 c 6,0 13,-1 20,-2 6,-2 12,-4 18,-8 5,-4 10,-9 14,-14 4,-6 6,-12 8,-18 1,-7 2,-13 2,-20 v -89 c 0,-6 -1,-13 -2,-19 -2,-7 -4,-13 -8,-19 -4,-5 -9,-10 -14,-13 -6,-4 -12,-7 -18,-8 -7,-2 -14,-2 -20,-2 -7,0 -13,0 -20,2 -6,1 -13,4 -18,8 -6,3 -10,8 -14,13 -4,6 -6,12 -8,19 -1,6 -2,13 -2,19 v 89 c 0,7 1,13 2,20 2,6 4,12 8,18 4,5 8,10 14,14 5,4 12,6 18,8 7,1 13,2 20,2 z m 0,-25 c -5,0 -9,-1 -14,-3 -5,-1 -9,-4 -12,-7 -3,-4 -6,-8 -7,-13 -1,-4 -2,-9 -2,-14 v -5 l 69,-48 v 53 c 0,5 0,10 -2,14 -1,5 -3,9 -6,13 -4,3 -8,6 -12,7 -5,2 -9,3 -14,3 z m -35,-73 v -53 c 0,-4 1,-9 2,-14 1,-5 4,-9 7,-12 3,-4 7,-7 12,-8 5,-2 9,-2 14,-2 5,0 9,0 14,2 4,1 8,4 12,8 3,3 5,7 6,12 2,5 2,10 2,14 v 6 z"
   id="path238" />
  <polygon
   class="fil11"
   points="773,9938 647,9938 647,9963 696,9963 696,10145 724,10145 724,9963 773,9963 "
   id="polygon240" />
  <path
   class="fil11"
   d="m 818,10145 h 28 v -82 h 30 c 7,0 13,-1 20,-2 6,-2 12,-4 18,-8 5,-4 10,-9 13,-15 4,-5 6,-11 8,-18 1,-6 2,-13 2,-20 0,-6 -1,-13 -2,-19 -2,-7 -4,-13 -8,-18 -3,-6 -8,-11 -13,-15 -6,-4 -12,-6 -18,-8 -7,-1 -13,-2 -20,-2 h -58 z m 28,-107 v -75 h 30 c 5,0 10,1 14,2 5,2 8,5 11,9 3,4 6,8 7,12 1,5 1,10 1,14 0,5 0,10 -1,15 -1,4 -4,8 -7,12 -3,4 -6,7 -11,9 -4,1 -9,2 -14,2 z"
   id="path242" />
  <path
   class="fil11"
   d="m 1037,10145 30,-50 c 5,-9 10,-18 15,-27 5,-9 8,-19 11,-29 3,-10 4,-20 4,-30 0,-7 0,-15 -2,-22 -1,-7 -3,-14 -6,-20 -4,-7 -8,-13 -13,-18 -6,-5 -12,-8 -19,-10 -7,-2 -14,-3 -22,-3 -7,0 -13,1 -20,2 -7,2 -13,5 -19,9 -5,4 -10,9 -13,15 -4,6 -6,12 -8,19 -1,7 -2,13 -2,20 0,9 1,17 4,25 2,9 6,16 12,23 5,6 12,11 21,14 8,2 16,4 25,4 7,0 13,-1 19,-3 -4,6 -7,11 -11,18 l -37,63 z m -2,-103 c -5,0 -10,-1 -15,-3 -4,-2 -8,-5 -11,-9 -3,-4 -5,-9 -7,-14 -1,-5 -1,-10 -1,-15 0,-5 0,-10 1,-15 2,-5 4,-9 7,-13 3,-4 7,-7 12,-9 4,-2 9,-3 14,-3 h 2 1 c 5,0 9,1 14,3 4,3 8,6 10,10 3,4 5,8 6,13 1,5 2,10 2,14 0,5 -1,10 -2,15 -1,5 -3,10 -6,14 -4,4 -7,7 -12,9 -5,2 -10,3 -15,3 z"
   id="path244" />
  <path
   class="fil11"
   d="m 2818,11242 h 27 v -82 h 31 c 7,0 13,-1 20,-3 6,-1 12,-4 17,-8 6,-4 10,-8 14,-14 4,-6 6,-12 8,-18 1,-7 2,-13 2,-20 0,-7 -1,-13 -2,-20 -2,-6 -4,-12 -8,-18 -4,-5 -8,-10 -14,-14 -5,-4 -11,-7 -17,-8 -7,-2 -13,-2 -20,-2 h -58 z m 27,-107 v -76 h 31 c 5,0 9,1 14,3 4,2 8,4 11,8 3,4 5,8 6,13 1,5 2,9 2,14 0,5 -1,10 -2,14 -1,5 -3,9 -6,13 -3,4 -7,6 -11,8 -5,2 -9,3 -14,3 z"
   id="path246" />
  <polygon
   class="fil11"
   points="2975,11059 3065,11059 2994,11242 3024,11242 3095,11059 3095,11035 2975,11035 "
   id="polygon248" />
  <path
   class="fil11"
   d="m 3845,10992 h 28 v -83 h 30 c 7,0 14,-1 20,-2 7,-2 13,-4 18,-8 5,-4 10,-9 14,-14 3,-6 6,-12 7,-19 1,-6 2,-13 2,-19 0,-7 -1,-14 -2,-20 -1,-7 -4,-13 -7,-18 -4,-6 -9,-11 -14,-15 -5,-3 -11,-6 -18,-8 -6,-1 -13,-2 -20,-2 h -58 z m 28,-108 v -75 h 30 c 5,0 10,1 14,3 5,1 9,4 12,8 3,4 5,8 6,13 1,4 1,9 1,14 0,4 0,9 -1,14 -1,4 -3,9 -6,12 -3,4 -7,7 -12,9 -4,1 -9,2 -14,2 z"
   id="path250" />
  <path
   class="fil11"
   d="m 4063,10994 c 7,0 13,-1 20,-3 7,-2 13,-5 19,-9 6,-5 10,-10 13,-16 4,-7 6,-13 7,-20 2,-7 2,-14 2,-21 0,0 0,0 0,0 0,0 0,0 0,0 0,-7 0,-14 -1,-20 -2,-7 -4,-14 -7,-20 -4,-6 -8,-12 -13,-16 -6,-5 -12,-8 -19,-10 -6,-2 -13,-3 -20,-3 -12,0 -23,3 -31,7 v -54 h 83 v -25 h -111 v 124 h 28 c 0,-5 1,-10 4,-14 3,-5 7,-8 12,-10 5,-2 10,-2 15,-2 5,0 10,1 15,3 4,2 8,6 11,10 3,5 4,10 5,15 1,5 2,10 2,15 0,0 0,0 0,0 0,0 0,0 0,0 0,5 -1,11 -2,16 -1,5 -3,10 -6,14 -2,5 -6,8 -11,11 -5,2 -10,3 -15,3 -6,0 -11,-1 -17,-3 -5,-3 -9,-6 -12,-11 -3,-5 -4,-11 -4,-16 h -28 c 0,7 2,15 5,22 3,7 7,14 13,19 6,5 12,9 20,11 7,2 15,3 23,3 z"
   id="path252" />
  <path
   class="fil11"
   d="m 4965,10862 h 28 v -82 h 30 c 7,0 13,-1 20,-3 6,-1 12,-4 18,-8 5,-3 10,-8 13,-14 4,-6 6,-12 8,-18 1,-7 2,-13 2,-20 0,-7 -1,-13 -2,-20 -2,-6 -4,-12 -8,-18 -3,-5 -8,-10 -13,-14 -6,-4 -12,-7 -18,-8 -7,-2 -13,-2 -20,-2 h -58 z m 28,-107 v -75 h 30 c 5,0 10,0 14,2 5,2 8,5 11,8 3,4 5,8 7,13 1,5 1,9 1,14 0,5 0,10 -1,14 -2,5 -4,9 -7,13 -3,4 -6,6 -11,8 -4,2 -9,3 -14,3 z"
   id="path254" />
  <path
   class="fil11"
   d="m 5183,10864 c 8,0 16,-1 24,-3 8,-2 15,-5 21,-11 6,-5 11,-11 14,-19 3,-8 4,-16 4,-24 0,-7 -1,-14 -4,-22 -3,-7 -7,-13 -13,-18 -5,-5 -12,-9 -19,-12 7,-3 12,-7 17,-12 5,-5 9,-10 11,-17 3,-6 4,-13 4,-20 0,-7 -1,-15 -4,-22 -3,-7 -7,-13 -13,-18 -6,-5 -12,-9 -20,-11 -7,-2 -15,-3 -22,-3 -7,0 -15,1 -22,3 -7,2 -14,5 -19,10 -6,5 -11,10 -14,17 -3,7 -4,14 -4,21 v 1 h 28 v -1 c 0,-5 1,-9 4,-14 3,-4 7,-8 12,-9 5,-2 10,-3 15,-3 5,0 10,1 16,3 5,3 9,6 11,11 3,5 4,10 4,16 0,5 -1,11 -4,16 -2,5 -6,9 -11,12 -4,4 -9,6 -15,7 -6,1 -11,1 -17,1 v 25 c 6,0 12,0 19,1 6,1 11,3 16,7 5,3 9,8 12,13 3,6 5,12 5,18 0,6 -2,12 -5,17 -3,6 -7,10 -13,12 -6,2 -12,4 -18,4 -6,0 -12,-1 -17,-3 -5,-2 -10,-5 -14,-10 -3,-5 -5,-10 -5,-15 h -28 c 0,7 2,15 6,22 3,7 8,13 14,18 6,5 13,8 21,10 7,1 15,2 23,2 z"
   id="path256" />
  <path
   class="fil11"
   d="m 6139,10784 h 27 v -82 h 31 c 6,0 13,-1 20,-2 6,-2 12,-4 17,-8 6,-4 10,-9 14,-15 4,-5 6,-11 7,-18 2,-6 3,-13 3,-20 0,-6 -1,-13 -3,-19 -1,-7 -3,-13 -7,-18 -4,-6 -8,-11 -14,-15 -5,-4 -11,-6 -17,-8 -7,-1 -14,-2 -20,-2 h -58 z m 27,-107 v -75 h 31 c 5,0 9,1 14,2 4,2 8,5 11,9 3,4 5,8 6,12 1,5 2,10 2,14 0,5 -1,10 -2,15 -1,4 -3,8 -6,12 -3,4 -7,7 -11,8 -5,2 -9,3 -14,3 z"
   id="path258" />
  <polygon
   class="fil11"
   points="6317,10633 6350,10609 6350,10784 6378,10784 6378,10577 6350,10577 6301,10613 "
   id="polygon260" />
  <path
   class="fil11"
   d="m 7241,10756 h 27 v -83 h 31 c 6,0 13,0 20,-2 6,-1 12,-4 17,-8 6,-4 10,-9 14,-14 4,-6 6,-12 7,-19 2,-6 3,-13 3,-19 0,-7 -1,-13 -3,-20 -1,-6 -3,-12 -7,-18 -4,-6 -8,-11 -14,-14 -5,-4 -11,-7 -17,-8 -7,-2 -14,-3 -20,-3 h -58 z m 27,-107 v -76 h 31 c 5,0 9,1 14,3 4,1 8,4 11,8 3,4 5,8 6,13 1,4 2,9 2,14 0,5 -1,9 -2,14 -1,5 -3,9 -6,13 -3,3 -7,6 -11,8 -5,2 -9,3 -14,3 z"
   id="path262" />
  <polygon
   class="fil11"
   points="7518,10731 7431,10731 7518,10631 7518,10606 7398,10606 7398,10631 7485,10631 7398,10731 7398,10756 7518,10756 "
   id="polygon264" />
  <path
   class="fil11"
   d="m 8336,10786 h 27 v -82 h 31 c 6,0 13,-1 19,-3 7,-1 13,-4 18,-8 6,-4 10,-8 14,-14 4,-6 6,-12 7,-18 2,-7 3,-13 3,-20 0,-7 -1,-13 -3,-20 -1,-6 -3,-12 -7,-18 -4,-6 -8,-10 -14,-14 -5,-4 -11,-7 -18,-8 -6,-2 -13,-2 -19,-2 h -58 z m 27,-107 v -76 h 31 c 5,0 9,1 14,3 4,2 8,4 11,8 3,4 5,8 6,13 1,5 2,9 2,14 0,5 -1,10 -2,14 -1,5 -3,9 -6,13 -3,3 -7,6 -11,8 -5,2 -9,3 -14,3 z"
   id="path266" />
  <path
   class="fil11"
   d="m 8493,10786 h 120 v -25 h -91 c 2,-9 5,-17 9,-25 5,-8 10,-15 17,-21 7,-6 15,-11 22,-16 8,-5 16,-10 22,-16 7,-6 13,-13 16,-22 4,-8 6,-17 6,-26 0,-8 -1,-16 -4,-24 -2,-7 -7,-14 -13,-20 -6,-5 -13,-9 -20,-11 -8,-3 -16,-4 -24,-4 -8,0 -15,1 -22,3 -8,2 -14,5 -20,10 -6,4 -11,10 -14,17 -3,7 -5,15 -5,22 h 28 c 0,-5 2,-10 5,-15 3,-4 7,-8 12,-9 5,-2 11,-3 16,-3 4,0 9,1 13,2 5,1 8,4 12,7 3,3 5,7 6,12 1,4 2,8 2,13 0,9 -3,17 -8,25 -5,8 -12,14 -20,18 -7,4 -15,9 -22,14 -8,6 -14,12 -20,18 -6,7 -11,15 -15,23 -3,8 -6,17 -7,26 -1,9 -1,18 -1,27 z"
   id="path268" />
  <path
   class="fil11"
   d="m 9511,10864 h 28 v -83 h 30 c 7,0 14,0 20,-2 7,-1 13,-4 18,-8 5,-4 10,-9 14,-14 3,-6 6,-12 7,-19 1,-6 2,-13 2,-19 0,-7 -1,-13 -2,-20 -1,-6 -4,-13 -7,-18 -4,-6 -9,-11 -14,-14 -5,-4 -11,-7 -18,-8 -6,-2 -13,-3 -20,-3 h -58 z m 28,-108 v -75 h 30 c 5,0 10,1 14,3 5,1 9,4 12,8 3,4 5,8 6,13 1,4 1,9 1,14 0,5 0,9 -1,14 -1,4 -3,9 -6,12 -3,4 -7,7 -12,9 -4,2 -9,2 -14,2 z"
   id="path270" />
  <path
   class="fil11"
   d="m 9697,10781 43,-80 v 80 z m 43,83 h 27 v -58 h 21 v -25 h -21 v -125 h -34 l -67,125 v 25 h 74 z"
   id="path272" />
  <path
   class="fil11"
   d="m 10622,10993 h 27 v -82 h 31 c 6,0 13,-1 19,-2 7,-2 13,-5 18,-9 6,-3 10,-8 14,-14 3,-5 6,-12 7,-18 2,-7 2,-13 2,-20 0,-6 0,-13 -2,-19 -1,-7 -4,-13 -7,-19 -4,-5 -8,-10 -14,-14 -5,-4 -11,-6 -18,-8 -6,-1 -13,-2 -19,-2 h -58 z m 27,-107 v -75 h 31 c 4,0 9,0 14,2 4,2 8,5 11,8 3,4 5,9 6,13 1,5 2,9 2,14 0,5 -1,10 -2,14 -1,5 -3,9 -6,13 -3,4 -7,6 -11,8 -5,2 -10,3 -14,3 z"
   id="path274" />
  <path
   class="fil11"
   d="m 10839,10995 c 7,0 13,0 20,-2 7,-2 13,-4 18,-9 6,-4 11,-9 14,-15 4,-6 6,-12 8,-19 1,-6 2,-13 2,-20 0,-9 -1,-17 -4,-25 -2,-9 -6,-16 -12,-23 -6,-6 -13,-11 -21,-13 -8,-3 -16,-4 -25,-4 -7,0 -13,0 -19,2 4,-5 7,-11 11,-18 l 37,-63 h -31 l -30,50 c -5,9 -10,18 -15,27 -5,9 -8,19 -11,29 -3,10 -4,20 -4,30 0,8 0,15 1,22 2,7 4,14 7,21 3,6 8,12 13,17 6,5 12,8 19,10 7,2 14,3 22,3 z m 0,-24 h -2 l -1,-1 c -5,0 -9,-1 -14,-3 -4,-2 -8,-5 -11,-9 -2,-5 -4,-9 -5,-14 -1,-5 -2,-9 -2,-14 0,-5 1,-10 2,-15 1,-5 3,-10 6,-14 3,-4 7,-7 12,-9 5,-2 10,-3 15,-3 5,0 10,1 14,3 5,2 9,5 12,9 3,4 5,9 6,14 1,5 2,10 2,15 0,5 -1,10 -2,15 -1,5 -3,9 -6,13 -3,5 -7,8 -12,10 -4,2 -9,3 -14,3 z"
   id="path276" />
  <path
   class="fil11"
   d="m 11651,11242 h 27 v -82 h 31 c 6,0 13,-1 19,-3 7,-1 13,-4 18,-8 6,-4 10,-8 14,-14 3,-6 6,-12 7,-18 2,-7 2,-13 2,-20 0,-7 0,-13 -2,-20 -1,-6 -4,-12 -7,-18 -4,-5 -8,-10 -14,-14 -5,-4 -11,-7 -18,-8 -6,-2 -13,-2 -19,-2 h -58 z m 27,-107 v -76 h 31 c 4,0 9,1 13,3 5,2 9,4 12,8 3,4 5,8 6,13 1,5 2,9 2,14 0,5 -1,10 -2,14 -1,5 -3,9 -6,13 -3,4 -7,6 -12,8 -4,2 -9,3 -13,3 z"
   id="path278" />
  <path
   class="fil11"
   d="m 11868,11244 c 7,0 15,-1 22,-2 7,-2 14,-5 21,-9 6,-5 11,-11 14,-18 3,-7 5,-14 5,-22 0,-22 -13,-40 -38,-56 22,-15 33,-33 33,-54 0,-7 -2,-14 -4,-21 -3,-7 -7,-13 -13,-17 -6,-5 -12,-8 -19,-10 -7,-2 -14,-3 -21,-3 -8,0 -15,1 -22,3 -7,2 -13,5 -19,10 -5,4 -10,10 -12,17 -3,7 -4,14 -4,21 0,21 11,39 33,54 -26,16 -39,34 -39,56 0,8 2,15 5,22 4,7 8,13 15,18 6,4 13,7 20,9 8,1 15,2 23,2 z m 0,-25 c -6,0 -11,0 -17,-2 -5,-1 -9,-4 -13,-9 -3,-4 -5,-9 -5,-15 0,-6 2,-12 6,-17 3,-6 8,-11 13,-15 5,-3 10,-7 16,-10 5,3 10,7 15,10 6,4 10,9 14,15 3,5 5,11 5,17 0,6 -2,11 -5,15 -4,5 -8,8 -13,9 -6,2 -11,2 -16,2 z m 0,-96 c -20,-12 -30,-25 -30,-40 0,-5 2,-10 4,-14 3,-4 6,-7 11,-9 5,-2 10,-3 15,-3 4,0 9,1 14,3 5,2 9,5 11,9 3,4 4,9 4,14 0,15 -10,28 -29,40 z"
   id="path280" />
  <path
   class="fil11"
   d="m 7156,12090 h 27 v -83 h 31 c 6,0 13,0 19,-2 7,-1 13,-4 18,-8 6,-4 10,-9 14,-14 3,-6 6,-12 7,-19 2,-6 2,-13 2,-19 0,-7 0,-13 -2,-20 -1,-6 -4,-12 -7,-18 -4,-6 -8,-10 -14,-14 -5,-4 -11,-7 -18,-8 -6,-2 -13,-3 -19,-3 h -58 z m 27,-107 v -76 h 31 c 4,0 9,1 14,3 4,1 8,4 11,8 3,4 5,8 6,13 1,4 2,9 2,14 0,5 -1,9 -2,14 -1,5 -3,9 -6,13 -3,3 -7,6 -11,8 -5,2 -10,3 -14,3 z"
   id="path282" />
  <path
   class="fil11"
   d="m 7373,12092 c 6,0 13,-1 19,-2 7,-1 12,-4 18,-7 6,-3 10,-8 14,-13 4,-5 7,-11 8,-17 2,-7 3,-13 3,-20 v -94 c 0,-7 -1,-13 -3,-20 -1,-6 -4,-12 -8,-17 -4,-5 -8,-9 -14,-13 -6,-3 -11,-6 -18,-7 -6,-1 -13,-2 -19,-2 -7,0 -13,1 -20,2 -6,1 -12,4 -18,7 -5,4 -10,8 -14,13 -4,5 -6,11 -8,17 -2,7 -2,13 -2,20 v 94 c 0,7 0,13 2,20 2,6 4,12 8,17 4,5 9,10 14,13 6,3 12,6 18,7 7,1 13,2 20,2 z m 0,-25 c -5,0 -9,0 -14,-2 -4,-1 -8,-3 -12,-7 -3,-3 -5,-7 -7,-11 -1,-5 -2,-9 -2,-14 v -94 c 0,-5 1,-9 2,-14 2,-4 4,-8 7,-11 4,-4 8,-6 12,-7 5,-1 9,-2 14,-2 4,0 9,1 13,2 5,1 9,3 12,7 3,3 6,7 7,11 1,5 2,9 2,14 v 94 c 0,5 -1,9 -2,14 -1,4 -4,8 -7,11 -3,4 -7,6 -12,7 -4,2 -9,2 -13,2 z"
   id="path284" />
  <polygon
   class="fil11"
   points="7595,12065 7509,12065 7595,11965 7595,11940 7475,11940 7475,11965 7562,11965 7475,12065 7475,12090 7595,12090 "
   id="polygon286" />
  <path
   class="fil11"
   d="m 8802,12202 h 27 v -82 h 31 c 6,0 13,-1 19,-3 7,-1 13,-4 18,-8 6,-4 10,-8 14,-14 3,-6 6,-12 7,-18 2,-7 2,-13 2,-20 0,-7 0,-13 -2,-20 -1,-6 -4,-12 -7,-18 -4,-5 -8,-10 -14,-14 -5,-4 -11,-7 -18,-8 -6,-2 -13,-2 -19,-2 h -58 z m 27,-107 v -76 h 31 c 4,0 9,1 14,3 4,2 8,4 11,8 3,4 5,8 6,13 1,5 2,9 2,14 0,5 -1,10 -2,14 -1,5 -3,9 -6,13 -3,4 -7,6 -11,8 -5,2 -10,3 -14,3 z"
   id="path288" />
  <path
   class="fil11"
   d="m 9019,12204 c 6,0 13,0 19,-2 7,-1 12,-3 18,-7 6,-3 10,-7 14,-13 4,-5 7,-11 8,-17 2,-7 3,-13 3,-19 v -95 c 0,-7 -1,-13 -3,-19 -1,-7 -4,-12 -8,-18 -4,-5 -8,-9 -14,-13 -6,-3 -11,-5 -18,-7 -6,-1 -13,-2 -19,-2 -7,0 -13,1 -20,2 -6,2 -12,4 -18,7 -5,4 -10,8 -14,13 -4,6 -6,11 -8,18 -2,6 -2,12 -2,19 v 95 c 0,6 0,12 2,19 2,6 4,12 8,17 4,6 9,10 14,13 6,4 12,6 18,7 7,2 13,2 20,2 z m 0,-25 c -5,0 -9,0 -14,-2 -4,-1 -8,-3 -12,-6 -3,-4 -5,-8 -7,-12 -1,-4 -2,-9 -2,-13 v -95 c 0,-4 1,-9 2,-13 2,-5 4,-9 7,-12 4,-3 8,-6 12,-7 5,-1 9,-2 14,-2 4,0 9,1 13,2 5,1 9,4 12,7 3,3 6,7 7,12 1,4 2,9 2,13 v 95 c 0,4 -1,9 -2,13 -1,4 -4,8 -7,12 -3,3 -7,5 -12,6 -4,2 -9,2 -13,2 z"
   id="path290" />
  <path
   class="fil11"
   d="m 9150,12119 42,-80 v 80 z m 42,83 h 28 v -58 h 21 v -25 h -21 v -124 h -35 l -66,124 v 25 h 73 z"
   id="path292" />
  <path
   class="fil11"
   d="m 10368,12452 h 27 v -82 h 31 c 6,0 13,-1 19,-2 7,-2 13,-4 18,-8 6,-4 10,-9 14,-15 3,-5 6,-11 7,-18 2,-6 2,-13 2,-20 0,-6 0,-13 -2,-19 -1,-7 -4,-13 -7,-18 -4,-6 -8,-11 -14,-15 -5,-4 -11,-6 -18,-8 -6,-1 -13,-2 -19,-2 h -58 z m 27,-107 v -75 h 31 c 4,0 9,1 14,2 4,2 8,5 11,9 3,4 5,8 6,12 1,5 2,10 2,14 0,5 -1,10 -2,15 -1,4 -3,8 -6,12 -3,4 -7,7 -11,9 -5,1 -10,2 -14,2 z"
   id="path294" />
  <path
   class="fil11"
   d="m 10585,12455 c 6,0 13,-1 19,-2 6,-2 12,-4 18,-7 6,-4 10,-8 14,-13 4,-6 7,-11 8,-18 2,-6 3,-13 3,-19 v -95 c 0,-6 -1,-13 -3,-19 -1,-6 -4,-12 -8,-17 -4,-6 -8,-10 -14,-13 -6,-4 -12,-6 -18,-7 -6,-2 -13,-2 -19,-2 -7,0 -13,0 -20,2 -6,1 -12,3 -18,7 -5,3 -10,7 -14,13 -4,5 -6,11 -8,17 -2,6 -2,13 -2,19 v 95 c 0,6 0,13 2,19 2,7 4,12 8,18 4,5 9,9 14,13 6,3 12,5 18,7 7,1 13,2 20,2 z m 0,-25 c -5,0 -9,-1 -14,-2 -4,-1 -8,-4 -12,-7 -3,-3 -5,-7 -7,-12 -1,-4 -2,-8 -2,-13 v -95 c 0,-4 1,-9 2,-13 2,-5 4,-8 7,-12 4,-3 8,-5 12,-6 5,-2 9,-2 14,-2 4,0 9,0 13,2 5,1 9,3 12,6 3,4 6,7 7,12 1,4 2,9 2,13 v 95 c 0,5 -1,9 -2,13 -1,5 -4,9 -7,12 -3,3 -7,6 -12,7 -4,1 -9,2 -13,2 z"
   id="path296" />
  <path
   class="fil11"
   d="m 10747,12455 c 8,0 15,-1 23,-3 7,-2 14,-5 20,-9 7,-4 11,-10 14,-17 4,-7 5,-15 5,-22 0,-22 -12,-41 -38,-57 22,-15 33,-33 33,-53 0,-8 -1,-15 -4,-22 -3,-6 -7,-12 -12,-17 -6,-5 -12,-8 -20,-10 -7,-1 -14,-2 -21,-2 -7,0 -14,1 -21,2 -7,2 -14,5 -19,10 -6,5 -10,11 -13,17 -2,7 -4,14 -4,22 0,20 11,38 33,53 -25,16 -38,35 -38,57 0,7 2,15 5,22 3,7 8,13 14,17 6,4 13,7 21,9 7,2 15,3 22,3 z m 0,-25 c -5,0 -11,-1 -16,-2 -5,-2 -10,-5 -13,-9 -4,-5 -5,-10 -5,-15 0,-7 2,-12 5,-18 4,-6 8,-10 13,-14 5,-4 11,-8 16,-11 6,3 11,7 16,11 5,4 10,8 13,14 4,6 6,11 6,18 0,5 -2,10 -6,15 -3,4 -7,7 -13,9 -5,1 -10,2 -16,2 z m 0,-97 c -19,-12 -29,-25 -29,-39 0,-6 1,-10 4,-15 2,-4 6,-7 11,-9 4,-2 9,-2 14,-2 5,0 10,0 15,2 5,2 8,5 11,9 3,5 4,9 4,15 0,14 -10,27 -30,39 z"
   id="path298" />
  <path
   class="fil11"
   d="m 8970,13233 c 7,0 13,-1 20,-2 6,-2 12,-4 18,-7 5,-4 10,-8 14,-13 4,-6 7,-12 8,-18 2,-6 2,-13 2,-19 v -95 c 0,-6 0,-13 -2,-19 -1,-6 -4,-12 -8,-17 -4,-6 -9,-10 -14,-13 -6,-4 -12,-6 -18,-7 -7,-2 -13,-2 -20,-2 -6,0 -13,0 -19,2 -6,1 -12,3 -18,7 -6,3 -10,7 -14,13 -4,5 -7,11 -8,17 -2,6 -3,13 -3,19 v 95 c 0,6 1,13 3,19 1,6 4,12 8,18 4,5 8,9 14,13 6,3 12,5 18,7 6,1 13,2 19,2 z m 0,-25 c -4,0 -9,-1 -13,-2 -5,-2 -9,-4 -12,-7 -3,-3 -6,-7 -7,-12 -2,-4 -2,-9 -2,-13 v -95 c 0,-4 0,-9 2,-13 1,-5 4,-9 7,-12 3,-3 7,-5 12,-7 4,-1 9,-2 13,-2 5,0 9,1 14,2 4,2 8,4 12,7 3,3 5,7 7,12 1,4 2,9 2,13 v 95 c 0,4 -1,9 -2,13 -2,5 -4,9 -7,12 -4,3 -8,5 -12,7 -5,1 -9,2 -14,2 z"
   id="path300" />
  <path
   class="fil11"
   d="m 9073,13230 h 120 v -25 h -91 c 2,-9 5,-17 9,-25 5,-8 10,-15 17,-21 7,-6 15,-11 22,-16 8,-4 16,-10 22,-16 7,-6 13,-13 16,-21 4,-9 6,-18 6,-27 0,-8 -1,-16 -4,-23 -2,-8 -7,-15 -13,-20 -6,-6 -13,-10 -20,-12 -8,-2 -16,-3 -24,-3 -8,0 -15,0 -22,2 -8,2 -14,5 -20,10 -6,5 -11,11 -14,18 -3,7 -5,14 -5,22 h 28 c 0,-6 2,-11 5,-16 3,-4 7,-7 12,-9 5,-2 11,-3 16,-3 4,0 9,1 13,2 5,2 8,4 12,7 3,4 5,7 6,12 1,4 2,9 2,13 0,9 -3,17 -8,25 -5,8 -12,14 -20,18 -7,5 -15,10 -22,15 -8,5 -14,11 -20,18 -6,6 -11,14 -15,22 -3,9 -6,17 -7,26 -1,9 -1,18 -1,27 z"
   id="path302" />
  <path
   class="fil11"
   d="m 7293,13495 c 6,0 13,-1 19,-2 7,-1 13,-3 18,-7 6,-3 10,-8 14,-13 4,-5 7,-11 8,-17 2,-7 3,-13 3,-20 v -94 c 0,-7 -1,-13 -3,-19 -1,-7 -4,-13 -8,-18 -4,-5 -8,-9 -14,-13 -5,-3 -11,-6 -18,-7 -6,-1 -13,-2 -19,-2 -7,0 -13,1 -20,2 -6,1 -12,4 -18,7 -5,4 -10,8 -14,13 -4,5 -6,11 -8,18 -2,6 -2,12 -2,19 v 94 c 0,7 0,13 2,20 2,6 4,12 8,17 4,5 9,10 14,13 6,4 12,6 18,7 7,1 13,2 20,2 z m 0,-25 c -5,0 -9,0 -14,-2 -4,-1 -8,-3 -12,-7 -3,-3 -5,-7 -7,-11 -1,-5 -2,-9 -2,-14 v -94 c 0,-5 1,-9 2,-14 2,-4 4,-8 7,-11 4,-3 8,-6 12,-7 5,-1 9,-2 14,-2 4,0 9,1 13,2 5,1 9,4 12,7 3,3 6,7 7,11 1,5 2,9 2,14 v 94 c 0,5 -1,9 -2,14 -1,4 -4,8 -7,11 -3,4 -7,6 -12,7 -4,2 -9,2 -13,2 z"
   id="path304" />
  <polygon
   class="fil11"
   points="7515,13468 7429,13468 7515,13368 7515,13343 7395,13343 7395,13368 7482,13368 7395,13468 7395,13493 7515,13493 "
   id="polygon306" />
  <path
   class="fil11"
   d="m 5614,13232 c 7,0 13,-1 19,-2 7,-1 13,-4 18,-7 6,-4 11,-8 15,-13 4,-5 6,-11 8,-18 1,-6 2,-13 2,-19 v -94 c 0,-7 -1,-13 -2,-20 -2,-6 -4,-12 -8,-17 -4,-5 -9,-10 -15,-13 -5,-4 -11,-6 -18,-7 -6,-1 -12,-2 -19,-2 -6,0 -13,1 -19,2 -7,1 -13,3 -18,7 -6,3 -11,8 -14,13 -4,5 -7,11 -9,17 -1,7 -2,13 -2,20 v 94 c 0,6 1,13 2,19 2,7 5,13 9,18 3,5 8,9 14,13 5,3 11,6 18,7 6,1 13,2 19,2 z m 0,-25 c -5,0 -9,-1 -14,-2 -4,-1 -8,-4 -11,-7 -4,-3 -6,-7 -7,-12 -2,-4 -2,-8 -2,-13 v -94 c 0,-5 0,-9 2,-14 1,-5 3,-8 7,-12 3,-3 7,-5 11,-6 5,-2 9,-2 14,-2 5,0 9,0 14,2 4,1 8,3 11,6 4,4 6,7 7,12 2,5 2,9 2,14 v 94 c 0,5 0,9 -2,13 -1,5 -3,9 -7,12 -3,3 -7,6 -11,7 -5,1 -9,2 -14,2 z"
   id="path308" />
  <polygon
   class="fil11"
   points="5738,13078 5771,13054 5771,13230 5799,13230 5799,13022 5771,13022 5722,13058 "
   id="polygon310" />
  <path
   class="fil11"
   d="m 5510,12202 h 27 v -82 h 31 c 6,0 13,-1 19,-3 7,-1 13,-4 18,-8 6,-4 10,-8 14,-14 3,-6 6,-12 7,-18 2,-7 2,-13 2,-20 0,-7 0,-13 -2,-20 -1,-6 -4,-12 -7,-18 -4,-5 -8,-10 -14,-14 -5,-4 -11,-7 -18,-8 -6,-2 -13,-2 -19,-2 h -58 z m 27,-107 v -76 h 31 c 4,0 9,1 14,3 4,2 8,4 11,8 3,4 5,8 6,13 1,5 2,9 2,14 0,5 -1,10 -2,14 -1,5 -3,9 -6,13 -3,4 -7,6 -11,8 -5,2 -10,3 -14,3 z"
   id="path312" />
  <path
   class="fil11"
   d="m 5727,12204 c 6,0 13,0 19,-2 7,-1 13,-3 18,-7 6,-3 10,-7 14,-13 4,-5 7,-11 8,-17 2,-7 3,-13 3,-19 v -95 c 0,-7 -1,-13 -3,-19 -1,-7 -4,-12 -8,-18 -4,-5 -8,-9 -14,-13 -5,-3 -11,-5 -18,-7 -6,-1 -13,-2 -19,-2 -7,0 -13,1 -20,2 -6,2 -12,4 -18,7 -5,4 -10,8 -14,13 -4,6 -6,11 -8,18 -2,6 -2,12 -2,19 v 95 c 0,6 0,12 2,19 2,6 4,12 8,17 4,6 9,10 14,13 6,4 12,6 18,7 7,2 13,2 20,2 z m 0,-25 c -5,0 -9,0 -14,-2 -4,-1 -8,-3 -12,-6 -3,-4 -5,-8 -7,-12 -1,-4 -2,-9 -2,-13 v -95 c 0,-4 1,-9 2,-13 2,-5 4,-9 7,-12 4,-3 8,-6 12,-7 5,-1 9,-2 14,-2 4,0 9,1 13,2 5,1 9,4 12,7 3,3 6,7 7,12 1,4 2,9 2,13 v 95 c 0,4 -1,9 -2,13 -1,4 -4,8 -7,12 -3,3 -7,5 -12,6 -4,2 -9,2 -13,2 z"
   id="path314" />
  <path
   class="fil11"
   d="m 5890,12204 c 8,0 16,-1 24,-3 8,-2 15,-6 21,-11 6,-5 11,-12 14,-19 3,-8 5,-16 5,-24 0,-7 -2,-15 -5,-22 -3,-7 -7,-13 -13,-18 -5,-5 -12,-9 -19,-12 7,-3 12,-7 17,-12 5,-5 9,-10 11,-17 3,-6 4,-13 4,-20 0,-7 -1,-15 -4,-22 -3,-7 -7,-13 -13,-18 -6,-5 -12,-9 -20,-11 -7,-2 -14,-3 -22,-3 -7,0 -15,1 -22,3 -7,2 -14,5 -19,10 -6,4 -10,10 -13,17 -3,7 -5,14 -5,21 v 1 h 28 v -1 c 0,-5 1,-9 4,-14 3,-4 7,-8 12,-9 5,-2 10,-3 15,-3 5,0 11,1 16,3 5,3 9,6 11,11 3,5 4,10 4,16 0,5 -1,11 -4,16 -2,5 -6,9 -10,12 -5,4 -10,6 -16,7 -5,0 -11,1 -16,1 v 25 c 6,0 12,0 18,1 6,1 11,3 17,7 5,3 9,8 12,13 2,6 4,12 4,18 0,6 -2,12 -5,17 -3,6 -7,10 -13,12 -6,2 -12,3 -18,3 -6,0 -11,0 -17,-2 -5,-2 -10,-5 -13,-10 -4,-5 -6,-10 -6,-15 h -27 c 0,7 1,15 5,22 3,7 8,13 14,18 6,5 13,8 21,10 7,1 15,2 23,2 z"
   id="path316" />
  <path
   class="fil11"
   d="m 3942,12452 h 28 v -82 h 30 c 7,0 13,-1 20,-2 6,-2 12,-4 18,-8 5,-4 10,-9 13,-15 4,-5 6,-11 8,-18 1,-6 2,-13 2,-20 0,-6 -1,-13 -2,-19 -2,-7 -4,-13 -8,-18 -3,-6 -8,-11 -13,-15 -6,-4 -12,-6 -18,-8 -7,-1 -13,-2 -20,-2 h -58 z m 28,-107 v -75 h 30 c 5,0 10,1 14,2 5,2 8,5 11,9 3,4 5,8 7,12 1,5 1,10 1,14 0,5 0,10 -1,15 -2,4 -4,8 -7,12 -3,4 -6,7 -11,9 -4,1 -9,2 -14,2 z"
   id="path318" />
  <path
   class="fil11"
   d="m 4159,12455 c 7,0 13,-1 20,-2 6,-2 12,-4 17,-7 6,-4 11,-8 15,-13 4,-6 6,-11 8,-18 1,-6 2,-13 2,-19 v -95 c 0,-6 -1,-13 -2,-19 -2,-6 -4,-12 -8,-17 -4,-6 -9,-10 -15,-13 -5,-4 -11,-6 -17,-7 -7,-2 -13,-2 -20,-2 -6,0 -13,0 -19,2 -7,1 -13,3 -18,7 -6,3 -11,7 -14,13 -4,5 -7,11 -9,17 -1,6 -2,13 -2,19 v 95 c 0,6 1,13 2,19 2,7 5,12 9,18 3,5 8,9 14,13 5,3 11,5 18,7 6,1 13,2 19,2 z m 0,-25 c -4,0 -9,-1 -13,-2 -5,-1 -9,-4 -12,-7 -3,-3 -6,-7 -7,-12 -2,-4 -2,-8 -2,-13 v -95 c 0,-4 0,-9 2,-13 1,-5 4,-8 7,-12 3,-3 7,-5 12,-6 4,-2 9,-2 13,-2 5,0 9,0 14,2 4,1 8,3 11,6 4,4 6,7 8,12 1,4 2,9 2,13 v 95 c 0,5 -1,9 -2,13 -2,5 -4,9 -8,12 -3,3 -7,6 -11,7 -5,1 -9,2 -14,2 z"
   id="path320" />
  <polygon
   class="fil11"
   points="4262,12270 4352,12270 4280,12452 4310,12452 4381,12270 4381,12245 4262,12245 "
   id="polygon322" />
  <polygon
   class="fil11"
   points="2018,6239 2082,6239 2082,6214 2018,6214 2018,6154 2100,6154 2100,6129 1991,6129 1991,6336 2018,6336 "
   id="polygon324"
   style="stroke:#000000;stroke-width:1.003;stroke-dasharray:none;stroke-opacity:1" />
  <polygon
   class="fil11"
   points="2266,6129 2139,6129 2139,6154 2189,6154 2189,6336 2216,6336 2216,6154 2266,6154 "
   id="polygon326"
   style="stroke:#000000;stroke-width:1.003;stroke-dasharray:none;stroke-opacity:1" />
  <polygon
   class="fil11"
   points="2305,6154 2395,6154 2324,6336 2354,6336 2425,6154 2425,6129 2305,6129 "
   id="polygon328"
   style="stroke:#000000;stroke-width:1.003;stroke-dasharray:none;stroke-opacity:1" />
  <polygon
   class="fil11"
   points="680,5807 744,5807 744,5783 680,5783 680,5722 761,5722 761,5698 652,5698 652,5905 680,5905 "
   id="polygon330"
   style="stroke:#000000;stroke-width:1.003;stroke-dasharray:none;stroke-opacity:1" />
  <polygon
   class="fil11"
   points="927,5698 801,5698 801,5722 850,5722 850,5905 878,5905 878,5722 927,5722 "
   id="polygon332"
   style="stroke:#000000;stroke-width:1.003;stroke-dasharray:none;stroke-opacity:1" />
  <path
   class="fil11"
   d="m 1029,5905 29,-50 c 5,-9 10,-19 15,-28 5,-9 9,-18 12,-28 2,-10 4,-20 4,-31 0,-7 -1,-14 -2,-21 -1,-7 -4,-14 -7,-21 -3,-6 -8,-12 -13,-17 -6,-5 -12,-8 -19,-11 -7,-2 -14,-3 -21,-3 -7,0 -14,1 -21,3 -7,1 -13,4 -18,8 -6,5 -10,10 -14,15 -3,6 -6,13 -7,20 -2,6 -3,13 -3,20 0,8 2,17 4,25 2,8 6,16 12,22 6,7 13,12 21,14 8,3 17,4 25,4 7,0 14,0 19,-2 -3,5 -7,11 -11,18 l -37,63 z m -2,-104 c -5,0 -10,0 -15,-2 -5,-2 -9,-6 -12,-10 -3,-4 -5,-8 -6,-13 -1,-5 -2,-10 -2,-15 0,-5 1,-10 2,-15 1,-5 3,-10 6,-14 3,-4 7,-7 12,-9 5,-2 10,-3 15,-3 h 1 1 c 5,1 10,2 14,4 5,2 8,5 11,9 3,4 4,9 5,14 1,4 2,9 2,14 0,5 -1,10 -2,15 -1,5 -3,9 -6,14 -3,4 -7,7 -12,9 -4,2 -9,2 -14,2 z"
   id="path334"
   style="stroke:#000000;stroke-width:1.003;stroke-dasharray:none;stroke-opacity:1" />
  <polygon
   class="fil11"
   points="3300,6420 3364,6420 3364,6396 3300,6396 3300,6336 3381,6336 3381,6311 3272,6311 3272,6518 3300,6518 "
   id="polygon336"
   style="stroke:#000000;stroke-width:1.003;stroke-dasharray:none;stroke-opacity:1" />
  <path
   class="fil11"
   d="m 3483,6520 c 8,0 15,-1 23,-2 7,-2 14,-5 20,-10 6,-5 11,-11 14,-18 3,-7 4,-14 4,-22 h -27 c 0,6 -2,11 -5,15 -3,5 -7,8 -13,10 -5,2 -10,3 -16,3 -4,0 -9,-1 -13,-2 -4,-2 -8,-4 -12,-7 -3,-4 -5,-8 -6,-12 -2,-4 -2,-9 -2,-13 v -95 c 0,-4 0,-9 2,-13 1,-5 3,-9 6,-12 4,-3 8,-5 12,-7 4,-1 9,-2 13,-2 6,0 11,1 16,3 6,1 10,5 13,9 3,5 5,10 5,15 h 27 c 0,-7 -1,-14 -4,-22 -3,-7 -8,-12 -14,-17 -6,-5 -13,-8 -20,-10 -8,-2 -15,-3 -23,-3 -6,0 -13,1 -19,2 -6,2 -12,4 -18,7 -5,4 -10,8 -14,14 -4,5 -6,11 -8,17 -1,6 -2,13 -2,19 v 95 c 0,6 1,12 2,19 2,6 4,12 8,17 4,6 9,10 14,13 6,4 12,6 18,7 6,2 13,2 19,2 z"
   id="path338"
   style="stroke:#000000;stroke-width:1.003;stroke-dasharray:none;stroke-opacity:1" />
  <path
   class="fil11"
   d="m 3647,6520 c 7,0 14,-1 21,-2 6,-2 13,-5 18,-10 6,-4 10,-10 14,-16 3,-6 5,-13 7,-19 1,-7 2,-14 2,-21 0,0 0,0 0,0 0,0 0,0 0,0 0,-7 -1,-14 -2,-21 -1,-7 -4,-13 -7,-20 -3,-6 -8,-11 -13,-16 -6,-4 -12,-7 -18,-9 -7,-2 -14,-3 -21,-3 -12,0 -23,2 -31,6 v -53 h 83 v -25 h -111 v 123 h 28 c 0,-5 2,-10 5,-14 3,-4 6,-7 11,-9 5,-2 10,-3 15,-3 5,0 10,1 15,4 5,2 8,5 11,10 3,4 5,9 6,14 1,5 1,10 1,16 0,0 0,0 0,0 0,0 0,0 0,0 0,5 -1,10 -2,15 -1,5 -3,10 -5,15 -3,4 -7,8 -12,10 -5,2 -10,4 -15,4 -6,0 -11,-2 -16,-4 -6,-2 -10,-6 -13,-11 -2,-5 -4,-10 -4,-16 h -28 c 0,8 2,15 5,22 3,8 7,14 13,19 6,6 13,9 20,11 8,2 15,3 23,3 z"
   id="path340"
   style="stroke:#000000;stroke-width:1.003;stroke-dasharray:none;stroke-opacity:1" />
  <polygon
   class="fil11"
   points="4606,6492 4669,6492 4669,6467 4606,6467 4606,6407 4687,6407 4687,6382 4578,6382 4578,6590 4606,6590 "
   id="polygon342"
   style="stroke:#000000;stroke-width:1.003;stroke-dasharray:none;stroke-opacity:1" />
  <path
   class="fil11"
   d="m 4789,6592 c 8,0 15,-1 23,-3 7,-2 14,-5 20,-10 6,-4 11,-10 14,-17 3,-7 4,-15 4,-22 h -27 c 0,5 -2,10 -5,15 -3,4 -8,8 -13,9 -5,2 -10,3 -16,3 -4,0 -9,-1 -13,-2 -4,-1 -8,-4 -12,-7 -3,-3 -5,-7 -6,-11 -2,-5 -2,-9 -2,-14 v -94 c 0,-5 0,-9 2,-14 1,-4 3,-8 6,-11 4,-4 8,-6 12,-7 4,-2 9,-2 13,-2 6,0 11,1 16,2 5,2 10,5 13,10 3,4 5,9 5,15 h 27 c 0,-8 -1,-15 -4,-22 -3,-7 -8,-13 -14,-18 -6,-4 -13,-8 -20,-9 -8,-2 -15,-3 -23,-3 -6,0 -13,1 -19,2 -6,1 -12,4 -18,7 -5,3 -10,8 -14,13 -4,5 -6,11 -8,18 -1,6 -2,12 -2,19 v 94 c 0,7 1,13 2,19 2,7 4,12 8,18 4,5 9,9 14,13 6,3 12,6 18,7 6,1 13,2 19,2 z"
   id="path344"
   style="stroke:#000000;stroke-width:1.003;stroke-dasharray:none;stroke-opacity:1" />
  <path
   class="fil11"
   d="m 4953,6592 c 8,0 16,-1 24,-3 8,-2 15,-6 21,-11 6,-5 11,-12 14,-20 3,-7 5,-15 5,-23 0,-8 -2,-15 -5,-22 -2,-7 -7,-13 -12,-18 -6,-6 -12,-10 -19,-12 6,-3 12,-7 16,-12 5,-5 9,-11 12,-17 2,-7 3,-13 3,-20 0,-8 -1,-15 -4,-22 -3,-7 -7,-13 -13,-19 -5,-5 -12,-8 -19,-10 -8,-2 -15,-3 -23,-3 -7,0 -14,1 -22,3 -7,1 -13,5 -19,9 -6,5 -10,11 -13,18 -3,7 -5,14 -5,21 v 0 h 28 v 0 c 0,-5 2,-10 4,-14 3,-5 7,-8 12,-10 5,-1 10,-2 15,-2 6,0 11,1 16,3 5,2 9,6 12,11 2,5 4,10 4,15 0,6 -2,11 -4,16 -3,6 -7,10 -11,13 -5,3 -10,5 -16,6 -5,1 -11,2 -16,2 v 24 c 6,0 12,1 18,2 6,1 12,3 17,6 5,4 9,8 12,14 3,6 4,11 4,18 0,6 -1,11 -4,17 -4,6 -8,9 -14,12 -6,2 -12,3 -18,3 -6,0 -11,-1 -17,-2 -5,-2 -10,-5 -13,-10 -4,-5 -5,-10 -5,-16 h -28 c 0,8 2,15 5,23 3,7 8,13 14,17 7,5 14,8 21,10 8,2 15,3 23,3 z"
   id="path346"
   style="stroke:#000000;stroke-width:1.003;stroke-dasharray:none;stroke-opacity:1" />
  <polygon
   class="fil11"
   points="5892,6578 5955,6578 5955,6553 5892,6553 5892,6493 5973,6493 5973,6469 5864,6469 5864,6676 5892,6676 "
   id="polygon348"
   style="stroke:#000000;stroke-width:1.003;stroke-dasharray:none;stroke-opacity:1" />
  <path
   class="fil11"
   d="m 6075,6678 c 8,0 15,-1 23,-2 7,-2 14,-5 20,-10 6,-5 11,-11 14,-18 3,-7 4,-14 4,-22 h -27 c 0,6 -2,11 -5,15 -3,5 -8,8 -13,10 -5,2 -10,2 -16,2 -4,0 -9,0 -13,-2 -4,-1 -8,-3 -12,-6 -3,-4 -5,-8 -7,-12 -1,-4 -2,-9 -2,-13 v -95 c 0,-5 1,-9 2,-13 2,-5 4,-9 7,-12 4,-3 8,-6 12,-7 4,-1 9,-2 13,-2 6,0 11,1 16,3 5,1 10,5 13,9 3,5 5,10 5,15 h 27 c 0,-7 -1,-15 -4,-22 -3,-7 -8,-13 -14,-17 -6,-5 -13,-8 -20,-10 -8,-2 -15,-3 -23,-3 -6,0 -13,1 -19,2 -6,2 -12,4 -18,7 -5,4 -10,8 -14,13 -4,6 -6,12 -8,18 -1,6 -2,13 -2,19 v 95 c 0,6 1,12 2,19 2,6 4,12 8,17 4,5 9,10 14,13 6,4 12,6 18,7 6,2 13,2 19,2 z"
   id="path350"
   style="stroke:#000000;stroke-width:1.003;stroke-dasharray:none;stroke-opacity:1" />
  <polygon
   class="fil11"
   points="6200,6525 6233,6500 6233,6676 6261,6676 6261,6469 6233,6469 6183,6504 "
   id="polygon352"
   style="stroke:#000000;stroke-width:1.003;stroke-dasharray:none;stroke-opacity:1" />
  <polygon
   class="fil11"
   points="7193,6548 7256,6548 7256,6523 7193,6523 7193,6463 7274,6463 7274,6438 7165,6438 7165,6646 7193,6646 "
   id="polygon354"
   style="stroke:#000000;stroke-width:1.003;stroke-dasharray:none;stroke-opacity:1" />
  <path
   class="fil11"
   d="m 7376,6648 c 7,0 15,-1 22,-3 8,-2 14,-5 20,-9 7,-5 11,-11 14,-18 3,-7 5,-14 5,-22 h -28 c 0,5 -1,10 -5,15 -3,4 -7,8 -12,9 -5,2 -11,3 -16,3 -5,0 -9,-1 -13,-2 -5,-1 -9,-4 -12,-7 -3,-3 -6,-7 -7,-11 -1,-5 -2,-9 -2,-14 v -94 c 0,-5 1,-9 2,-14 1,-4 4,-8 7,-11 3,-4 7,-6 12,-7 4,-2 8,-2 13,-2 5,0 11,1 16,2 5,2 9,5 12,10 4,4 5,9 5,15 h 28 c 0,-8 -2,-15 -5,-22 -3,-7 -7,-13 -14,-18 -6,-4 -12,-8 -20,-9 -7,-2 -15,-3 -22,-3 -7,0 -13,1 -19,2 -7,1 -13,4 -18,7 -6,3 -10,8 -14,13 -4,5 -7,11 -8,18 -2,6 -3,12 -3,19 v 94 c 0,7 1,13 3,19 1,7 4,12 8,18 4,5 8,10 14,13 5,3 11,6 18,7 6,1 12,2 19,2 z"
   id="path356"
   style="stroke:#000000;stroke-width:1.003;stroke-dasharray:none;stroke-opacity:1" />
  <polygon
   class="fil11"
   points="7599,6621 7513,6621 7599,6521 7599,6496 7479,6496 7479,6521 7566,6521 7479,6621 7479,6646 7599,6646 "
   id="polygon358"
   style="stroke:#000000;stroke-width:1.003;stroke-dasharray:none;stroke-opacity:1" />
  <polygon
   class="fil11"
   points="8486,6578 8550,6578 8550,6553 8486,6553 8486,6493 8567,6493 8567,6469 8458,6469 8458,6676 8486,6676 "
   id="polygon360"
   style="stroke:#000000;stroke-width:1.003;stroke-dasharray:none;stroke-opacity:1" />
  <path
   class="fil11"
   d="m 8670,6678 c 7,0 14,-1 22,-2 7,-2 14,-5 20,-10 6,-5 11,-11 14,-18 3,-7 4,-14 4,-22 h -27 c 0,6 -2,11 -5,15 -3,5 -7,8 -13,10 -5,2 -10,2 -15,2 -5,0 -9,0 -14,-2 -4,-1 -8,-3 -11,-6 -4,-4 -6,-8 -7,-12 -2,-4 -2,-9 -2,-13 v -95 c 0,-5 0,-9 2,-13 1,-5 3,-9 7,-12 3,-3 7,-6 11,-7 5,-1 9,-2 14,-2 5,0 10,1 15,3 6,1 10,5 13,9 3,5 5,10 5,15 h 27 c 0,-7 -1,-15 -4,-22 -3,-7 -8,-13 -14,-17 -6,-5 -13,-8 -20,-10 -8,-2 -15,-3 -22,-3 -7,0 -14,1 -20,2 -6,2 -12,4 -18,7 -5,4 -10,8 -14,13 -4,6 -6,12 -8,18 -1,6 -2,13 -2,19 v 95 c 0,6 1,12 2,19 2,6 4,12 8,17 4,5 9,10 14,13 6,4 12,6 18,7 6,2 13,2 20,2 z"
   id="path362"
   style="stroke:#000000;stroke-width:1.003;stroke-dasharray:none;stroke-opacity:1" />
  <path
   class="fil11"
   d="m 8773,6676 h 119 v -25 h -90 c 1,-9 4,-17 9,-25 4,-8 10,-15 17,-21 7,-6 14,-11 22,-16 8,-5 15,-10 22,-16 7,-6 12,-13 16,-22 4,-8 6,-17 6,-26 0,-8 -2,-16 -4,-24 -3,-7 -7,-14 -13,-20 -6,-5 -13,-9 -21,-11 -7,-3 -15,-4 -23,-4 -8,0 -15,1 -22,3 -8,2 -14,5 -20,10 -6,4 -11,10 -14,17 -3,7 -5,15 -5,22 h 28 c 0,-5 2,-10 5,-15 3,-4 7,-8 12,-9 5,-2 10,-3 16,-3 4,0 9,1 13,2 4,1 8,4 11,7 4,3 6,7 7,12 1,4 2,8 2,13 0,9 -3,17 -8,25 -5,8 -12,14 -20,18 -8,4 -15,9 -23,14 -7,6 -14,12 -19,18 -6,7 -11,15 -15,23 -4,8 -6,17 -7,26 -1,9 -1,18 -1,27 z"
   id="path364"
   style="stroke:#000000;stroke-width:1.003;stroke-dasharray:none;stroke-opacity:1" />
  <polygon
   class="fil11"
   points="9774,6492 9837,6492 9837,6467 9774,6467 9774,6407 9855,6407 9855,6382 9746,6382 9746,6590 9774,6590 "
   id="polygon366"
   style="stroke:#000000;stroke-width:1.003;stroke-dasharray:none;stroke-opacity:1" />
  <path
   class="fil11"
   d="m 9957,6592 c 8,0 15,-1 23,-3 7,-2 14,-5 20,-10 6,-4 11,-10 14,-17 3,-7 4,-15 4,-22 h -27 c 0,5 -2,10 -5,15 -3,4 -8,8 -13,9 -5,2 -10,3 -16,3 -4,0 -9,-1 -13,-2 -4,-1 -8,-4 -12,-7 -3,-3 -5,-7 -7,-11 -1,-5 -2,-9 -2,-14 v -94 c 0,-5 1,-9 2,-14 2,-4 4,-8 7,-11 4,-4 8,-6 12,-7 4,-2 9,-2 13,-2 6,0 11,1 16,2 5,2 10,5 13,10 3,4 5,9 5,15 h 27 c 0,-8 -1,-15 -4,-22 -3,-7 -8,-13 -14,-18 -6,-4 -13,-8 -20,-9 -8,-2 -15,-3 -23,-3 -6,0 -13,1 -19,2 -6,1 -12,4 -18,7 -5,3 -10,8 -14,13 -4,5 -6,11 -8,18 -1,6 -2,12 -2,19 v 94 c 0,7 1,13 2,19 2,7 4,12 8,18 4,5 9,9 14,13 6,3 12,6 18,7 6,1 13,2 19,2 z"
   id="path368"
   style="stroke:#000000;stroke-width:1.003;stroke-dasharray:none;stroke-opacity:1" />
  <path
   class="fil11"
   d="m 10089,6507 43,-80 v 80 z m 43,83 h 27 v -59 h 21 v -24 h -21 v -125 h -34 l -67,125 v 24 h 74 z"
   id="path370"
   style="stroke:#000000;stroke-width:1.003;stroke-dasharray:none;stroke-opacity:1" />
  <polygon
   class="fil11"
   points="11074,6423 11138,6423 11138,6398 11074,6398 11074,6338 11155,6338 11155,6313 11046,6313 11046,6521 11074,6521 "
   id="polygon372"
   style="stroke:#000000;stroke-width:1.003;stroke-dasharray:none;stroke-opacity:1" />
  <path
   class="fil11"
   d="m 11258,6523 c 7,0 15,-1 22,-3 7,-2 14,-5 20,-10 6,-4 11,-10 14,-17 3,-7 5,-15 5,-22 h -28 c 0,5 -2,10 -5,15 -3,4 -7,8 -13,9 -5,2 -10,3 -15,3 -5,0 -9,-1 -14,-2 -4,-1 -8,-4 -11,-7 -4,-3 -6,-7 -7,-11 -2,-5 -2,-9 -2,-14 v -94 c 0,-5 0,-9 2,-14 1,-4 3,-8 7,-11 3,-4 7,-6 11,-7 5,-2 9,-2 14,-2 5,0 10,1 15,2 6,2 10,5 13,10 3,4 5,9 5,15 h 28 c 0,-8 -2,-15 -5,-22 -3,-7 -8,-13 -14,-18 -6,-4 -13,-8 -20,-9 -7,-2 -15,-3 -22,-3 -7,0 -13,1 -20,2 -6,1 -12,4 -18,7 -5,3 -10,8 -14,13 -4,5 -6,11 -8,18 -1,6 -2,12 -2,19 v 94 c 0,7 1,13 2,19 2,6 4,12 8,18 4,5 9,9 14,13 6,3 12,6 18,7 7,1 13,2 20,2 z"
   id="path374"
   style="stroke:#000000;stroke-width:1.003;stroke-dasharray:none;stroke-opacity:1" />
  <path
   class="fil11"
   d="m 11421,6523 c 7,0 13,-1 20,-3 7,-1 13,-4 18,-8 6,-4 11,-9 14,-15 4,-6 6,-13 8,-19 1,-7 2,-14 2,-21 0,-8 -1,-17 -4,-25 -2,-8 -6,-16 -12,-22 -6,-7 -13,-11 -21,-14 -8,-3 -16,-4 -25,-4 -7,0 -13,1 -19,2 4,-5 7,-11 11,-18 l 37,-63 h -31 l -30,51 c -5,8 -10,17 -15,27 -4,9 -8,18 -11,28 -3,10 -4,20 -4,31 0,7 0,14 1,21 2,8 4,14 7,21 3,7 8,12 13,17 6,5 12,9 19,11 7,2 15,3 22,3 z m 0,-25 h -2 -1 c -5,0 -9,-2 -14,-4 -4,-2 -8,-5 -11,-9 -2,-4 -4,-9 -5,-13 -1,-5 -2,-10 -2,-15 0,-5 1,-10 2,-15 1,-5 3,-9 6,-13 3,-5 7,-8 12,-9 5,-2 10,-3 15,-3 5,0 10,1 15,3 4,1 8,4 11,9 3,4 5,8 6,13 2,5 2,10 2,15 0,5 0,10 -2,15 -1,5 -3,10 -6,14 -3,4 -7,7 -11,9 -5,2 -10,3 -15,3 z"
   id="path376"
   style="stroke:#000000;stroke-width:1.003;stroke-dasharray:none;stroke-opacity:1" />
  <polygon
   class="fil11"
   points="12353,6242 12417,6242 12417,6217 12353,6217 12353,6157 12435,6157 12435,6132 12326,6132 12326,6339 12353,6339 "
   id="polygon378"
   style="stroke:#000000;stroke-width:1.003;stroke-dasharray:none;stroke-opacity:1" />
  <polygon
   class="fil11"
   points="12601,6132 12474,6132 12474,6157 12524,6157 12524,6339 12551,6339 12551,6157 12601,6157 "
   id="polygon380"
   style="stroke:#000000;stroke-width:1.003;stroke-dasharray:none;stroke-opacity:1" />
  <path
   class="fil11"
   d="m 12700,6341 c 8,0 15,0 22,-2 8,-2 15,-5 21,-9 6,-5 11,-10 14,-17 4,-7 5,-15 5,-22 0,-22 -13,-41 -38,-57 22,-15 33,-33 33,-54 0,-7 -1,-14 -4,-21 -3,-7 -7,-12 -13,-17 -5,-5 -12,-8 -19,-10 -7,-2 -14,-2 -21,-2 -7,0 -14,0 -21,2 -7,2 -14,5 -19,10 -6,5 -10,10 -13,17 -3,7 -4,14 -4,21 0,21 11,39 33,54 -25,16 -38,35 -38,57 0,7 2,15 5,22 3,7 8,12 14,17 6,4 13,7 21,9 7,2 14,2 22,2 z m 0,-24 c -5,0 -11,-1 -16,-3 -5,-1 -10,-4 -13,-9 -4,-4 -5,-9 -5,-14 0,-7 1,-13 5,-18 4,-6 8,-10 13,-14 5,-4 11,-8 16,-11 5,3 11,7 16,11 5,4 10,8 13,14 4,5 5,11 5,18 0,5 -1,10 -5,14 -3,5 -8,8 -13,9 -5,2 -11,3 -16,3 z m 0,-97 c -20,-12 -29,-25 -29,-40 0,-5 1,-9 4,-14 2,-4 6,-7 11,-9 4,-2 9,-3 14,-3 5,0 10,1 15,3 4,2 8,5 11,9 2,5 4,9 4,14 0,15 -10,28 -30,40 z"
   id="path382"
   style="stroke:#000000;stroke-width:1.003;stroke-dasharray:none;stroke-opacity:1" />
  <polygon
   class="fil11"
   points="13611,5807 13675,5807 13675,5783 13611,5783 13611,5722 13693,5722 13693,5698 13584,5698 13584,5905 13611,5905 "
   id="polygon384"
   style="stroke:#000000;stroke-width:1.003;stroke-dasharray:none;stroke-opacity:1" />
  <polygon
   class="fil11"
   points="13859,5698 13732,5698 13732,5722 13782,5722 13782,5905 13809,5905 13809,5722 13859,5722 "
   id="polygon386"
   style="stroke:#000000;stroke-width:1.003;stroke-dasharray:none;stroke-opacity:1" />
  <polygon
   class="fil11"
   points="13919,5754 13953,5730 13953,5905 13980,5905 13980,5698 13953,5698 13903,5733 "
   id="polygon388"
   style="stroke:#000000;stroke-width:1.003;stroke-dasharray:none;stroke-opacity:1" />
  <path
   class="fil11"
   d="m 14121,5907 c 6,0 13,0 19,-2 7,-1 13,-4 18,-8 6,-3 11,-8 14,-14 4,-5 7,-11 8,-18 2,-6 3,-13 3,-19 v -89 c 0,-7 -1,-13 -3,-20 -1,-6 -4,-13 -8,-18 -3,-6 -8,-10 -14,-14 -5,-4 -11,-6 -18,-8 -6,-1 -13,-2 -19,-2 -7,0 -14,1 -20,2 -7,2 -13,4 -18,8 -6,4 -11,8 -14,14 -4,5 -7,12 -8,18 -2,7 -3,13 -3,20 v 89 c 0,6 1,13 3,19 1,7 4,13 8,18 3,6 8,11 14,14 5,4 11,7 18,8 6,2 13,2 20,2 z m 0,-25 c -5,0 -10,0 -14,-2 -5,-2 -9,-4 -12,-8 -4,-3 -6,-7 -7,-12 -1,-5 -2,-9 -2,-14 v -6 l 69,-47 v 53 c 0,5 -1,9 -2,14 -1,5 -3,9 -7,12 -3,4 -7,6 -12,8 -4,2 -9,2 -13,2 z m -35,-72 v -53 c 0,-5 1,-10 2,-14 1,-5 3,-9 7,-13 3,-3 7,-6 12,-8 4,-1 9,-2 14,-2 4,0 9,1 13,2 5,2 9,5 12,8 4,4 6,8 7,13 1,4 2,9 2,14 v 6 z"
   id="path390"
   style="stroke:#000000;stroke-width:1.003;stroke-dasharray:none;stroke-opacity:1" />
  <polygon
   class="fil11"
   points="11684,4719 11747,4719 11747,4695 11684,4695 11684,4635 11765,4635 11765,4610 11656,4610 11656,4817 11684,4817 "
   id="polygon392"
   style="stroke:#000000;stroke-width:1.003;stroke-dasharray:none;stroke-opacity:1" />
  <path
   class="fil11"
   d="m 11868,4819 c 8,0 15,0 22,-2 8,-2 15,-5 21,-9 6,-5 11,-10 14,-18 3,-7 5,-14 5,-21 0,-22 -13,-41 -38,-57 22,-15 33,-33 33,-54 0,-7 -1,-14 -4,-21 -3,-7 -7,-12 -13,-17 -5,-5 -12,-8 -19,-10 -7,-2 -14,-3 -21,-3 -7,0 -14,1 -21,3 -7,2 -14,5 -19,10 -6,5 -10,10 -13,17 -3,7 -4,14 -4,21 0,21 11,39 33,54 -25,16 -38,35 -38,57 0,7 2,14 5,21 3,8 8,13 14,18 6,4 13,7 21,9 7,2 14,2 22,2 z m 0,-24 c -5,0 -11,-1 -16,-3 -5,-1 -10,-4 -13,-9 -4,-4 -5,-9 -5,-14 0,-7 1,-13 5,-18 4,-6 8,-11 13,-14 5,-4 11,-8 16,-11 5,3 11,7 16,11 5,3 9,8 13,14 4,5 5,11 5,18 0,5 -1,10 -5,14 -3,5 -8,8 -13,9 -5,2 -11,3 -16,3 z m 0,-97 c -20,-12 -29,-25 -29,-40 0,-5 1,-10 4,-14 2,-4 6,-7 11,-9 4,-2 9,-3 14,-3 5,0 10,1 15,3 4,2 8,5 11,9 2,4 4,9 4,14 0,15 -10,28 -30,40 z"
   id="path394"
   style="stroke:#000000;stroke-width:1.003;stroke-dasharray:none;stroke-opacity:1" />
  <polygon
   class="fil11"
   points="10666,4970 10729,4970 10729,4945 10666,4945 10666,4885 10747,4885 10747,4860 10638,4860 10638,5068 10666,5068 "
   id="polygon396"
   style="stroke:#000000;stroke-width:1.003;stroke-dasharray:none;stroke-opacity:1" />
  <path
   class="fil11"
   d="m 10850,5070 c 7,0 13,-1 20,-3 7,-1 13,-4 18,-8 6,-4 11,-9 14,-15 4,-6 6,-13 8,-19 1,-7 2,-14 2,-21 0,-8 -1,-17 -4,-25 -2,-8 -6,-16 -12,-22 -6,-7 -13,-11 -21,-14 -8,-3 -16,-4 -25,-4 -7,0 -14,1 -19,2 4,-5 7,-11 11,-18 l 37,-63 h -31 l -30,51 c -5,8 -10,17 -15,27 -5,9 -8,18 -11,28 -3,10 -5,20 -5,31 0,7 1,14 2,21 2,8 4,14 7,21 3,7 8,12 13,17 6,5 12,9 19,11 7,2 14,3 22,3 z m 0,-25 h -2 -1 c -5,-1 -10,-2 -14,-4 -4,-2 -8,-5 -11,-9 -2,-4 -4,-9 -5,-13 -1,-5 -2,-10 -2,-15 0,-5 1,-10 2,-15 1,-5 3,-9 6,-13 3,-5 7,-8 12,-10 5,-1 10,-2 15,-2 5,0 10,1 14,2 5,2 9,5 12,10 3,4 5,8 6,13 1,5 2,10 2,15 0,5 -1,10 -2,15 -1,5 -3,10 -6,14 -3,4 -7,7 -12,9 -4,2 -9,3 -14,3 z"
   id="path398"
   style="stroke:#000000;stroke-width:1.003;stroke-dasharray:none;stroke-opacity:1" />
  <polygon
   class="fil11"
   points="9551,5099 9614,5099 9614,5075 9551,5075 9551,5014 9632,5014 9632,4990 9523,4990 9523,5197 9551,5197 "
   id="polygon400"
   style="stroke:#000000;stroke-width:1.003;stroke-dasharray:none;stroke-opacity:1" />
  <path
   class="fil11"
   d="m 9704,5114 42,-80 v 80 z m 42,83 h 28 v -58 h 21 v -25 h -21 v -124 h -35 l -66,124 v 25 h 73 z"
   id="path402"
   style="stroke:#000000;stroke-width:1.003;stroke-dasharray:none;stroke-opacity:1" />
  <polygon
   class="fil11"
   points="8384,5187 8447,5187 8447,5162 8384,5162 8384,5102 8465,5102 8465,5078 8356,5078 8356,5285 8384,5285 "
   id="polygon404"
   style="stroke:#000000;stroke-width:1.003;stroke-dasharray:none;stroke-opacity:1" />
  <path
   class="fil11"
   d="m 8508,5285 h 120 v -25 h -91 c 1,-9 4,-17 9,-25 5,-8 10,-15 17,-21 7,-6 15,-11 22,-16 8,-5 16,-10 22,-16 7,-6 13,-13 16,-22 4,-8 6,-17 6,-26 0,-8 -2,-16 -4,-24 -2,-7 -7,-14 -13,-20 -6,-5 -13,-9 -20,-11 -8,-3 -16,-4 -24,-4 -8,0 -15,1 -22,3 -8,2 -14,5 -20,10 -6,4 -11,10 -14,17 -3,7 -5,15 -5,22 h 28 c 0,-5 2,-10 5,-15 3,-4 7,-8 12,-9 5,-2 10,-3 16,-3 4,0 9,1 13,2 5,1 8,4 12,7 3,3 5,7 6,12 1,4 2,8 2,13 0,9 -3,17 -8,25 -5,8 -12,14 -20,18 -8,4 -15,9 -22,14 -8,6 -14,12 -20,18 -6,7 -11,15 -15,23 -3,8 -6,17 -7,26 -1,9 -1,18 -1,27 z"
   id="path406"
   style="stroke:#000000;stroke-width:1.003;stroke-dasharray:none;stroke-opacity:1" />
  <polygon
   class="fil11"
   points="7271,5174 7335,5174 7335,5150 7271,5150 7271,5090 7352,5090 7352,5065 7244,5065 7244,5272 7271,5272 "
   id="polygon408"
   style="stroke:#000000;stroke-width:1.003;stroke-dasharray:none;stroke-opacity:1" />
  <polygon
   class="fil11"
   points="7515,5247 7429,5247 7515,5147 7515,5123 7395,5123 7395,5147 7482,5147 7395,5247 7395,5272 7515,5272 "
   id="polygon410"
   style="stroke:#000000;stroke-width:1.003;stroke-dasharray:none;stroke-opacity:1" />
  <polygon
   class="fil11"
   points="6154,5187 6217,5187 6217,5162 6154,5162 6154,5102 6235,5102 6235,5078 6126,5078 6126,5285 6154,5285 "
   id="polygon412"
   style="stroke:#000000;stroke-width:1.003;stroke-dasharray:none;stroke-opacity:1" />
  <polygon
   class="fil11"
   points="6299,5134 6332,5109 6332,5285 6360,5285 6360,5078 6332,5078 6283,5113 "
   id="polygon414"
   style="stroke:#000000;stroke-width:1.003;stroke-dasharray:none;stroke-opacity:1" />
  <polygon
   class="fil11"
   points="4992,5101 5056,5101 5056,5076 4992,5076 4992,5016 5073,5016 5073,4991 4964,4991 4964,5199 4992,5199 "
   id="polygon416"
   style="stroke:#000000;stroke-width:1.003;stroke-dasharray:none;stroke-opacity:1" />
  <path
   class="fil11"
   d="m 5177,5201 c 8,0 16,-1 24,-3 8,-2 15,-6 21,-11 6,-5 11,-12 14,-20 3,-7 4,-15 4,-23 0,-8 -1,-15 -4,-22 -3,-7 -7,-13 -13,-18 -5,-6 -12,-10 -19,-12 6,-3 12,-7 17,-12 5,-5 9,-11 11,-17 3,-7 4,-13 4,-20 0,-8 -2,-15 -4,-22 -3,-7 -7,-13 -13,-19 -6,-5 -12,-8 -20,-10 -7,-2 -15,-3 -22,-3 -7,0 -15,1 -22,3 -7,1 -14,5 -19,9 -6,5 -11,11 -14,18 -3,7 -4,14 -4,21 v 0 h 28 v 0 c 0,-5 1,-10 4,-14 3,-5 7,-8 12,-10 5,-1 10,-2 15,-2 5,0 10,1 16,3 5,2 9,6 11,11 3,4 4,10 4,15 0,6 -1,11 -4,16 -2,6 -6,10 -11,13 -4,3 -9,5 -15,6 -6,1 -11,2 -17,2 v 24 c 6,0 12,1 19,2 6,1 11,3 16,6 5,4 9,8 12,14 3,6 5,11 5,18 0,6 -2,11 -5,17 -3,5 -7,9 -13,12 -6,2 -12,3 -18,3 -6,0 -12,-1 -17,-2 -5,-2 -10,-5 -14,-10 -3,-5 -5,-10 -5,-16 h -28 c 0,8 2,15 5,23 4,7 9,13 15,17 6,5 13,8 21,10 7,2 15,3 23,3 z"
   id="path418"
   style="stroke:#000000;stroke-width:1.003;stroke-dasharray:none;stroke-opacity:1" />
  <polygon
   class="fil11"
   points="3875,4970 3939,4970 3939,4945 3875,4945 3875,4885 3956,4885 3956,4860 3847,4860 3847,5068 3875,5068 "
   id="polygon420"
   style="stroke:#000000;stroke-width:1.003;stroke-dasharray:none;stroke-opacity:1" />
  <path
   class="fil11"
   d="m 4059,5070 c 7,0 14,-1 21,-3 7,-2 13,-5 19,-9 5,-5 10,-10 13,-16 3,-7 6,-13 7,-20 1,-7 2,-14 2,-21 0,0 0,0 0,0 0,0 0,0 0,0 0,-7 0,-14 -2,-21 -1,-6 -3,-13 -7,-19 -3,-6 -7,-12 -13,-16 -5,-5 -11,-8 -18,-10 -7,-2 -14,-3 -21,-3 -12,0 -22,3 -31,7 v -54 h 84 v -25 h -111 v 124 h 27 c 1,-5 2,-10 5,-15 3,-4 7,-7 12,-9 4,-2 9,-3 14,-3 6,0 11,2 15,4 5,2 9,6 12,10 2,5 4,10 5,15 1,5 1,10 1,15 0,0 0,0 0,0 0,0 0,0 0,0 0,5 0,10 -1,16 -1,5 -3,10 -6,14 -3,5 -7,8 -11,10 -5,3 -10,4 -16,4 -5,0 -11,-1 -16,-3 -5,-3 -9,-6 -12,-11 -3,-6 -5,-11 -5,-16 h -27 c 0,7 1,15 4,22 3,7 8,13 14,19 6,5 12,9 20,11 7,2 15,3 22,3 z"
   id="path422"
   style="stroke:#000000;stroke-width:1.003;stroke-dasharray:none;stroke-opacity:1" />
  <polygon
   class="fil11"
   points="2851,4719 2914,4719 2914,4695 2851,4695 2851,4635 2932,4635 2932,4610 2823,4610 2823,4817 2851,4817 "
   id="polygon424"
   style="stroke:#000000;stroke-width:1.003;stroke-dasharray:none;stroke-opacity:1" />
  <polygon
   class="fil11"
   points="2975,4635 3065,4635 2994,4817 3024,4817 3095,4635 3095,4610 2975,4610 "
   id="polygon426"
   style="stroke:#000000;stroke-width:1.003;stroke-dasharray:none;stroke-opacity:1" />
  <path
   class="fil11"
   d="m 5456,3922 h 28 l 14,-50 h 61 l 13,50 h 29 l -43,-156 -14,-52 h -32 z m 49,-75 6,-22 c 9,-35 15,-63 17,-85 3,22 8,50 18,85 l 6,22 z"
   id="path428"
   style="stroke:#000000;stroke-width:1.003;stroke-dasharray:none;stroke-opacity:1" />
  <polygon
   class="fil11"
   points="5669,3824 5733,3824 5733,3799 5669,3799 5669,3739 5751,3739 5751,3714 5642,3714 5642,3922 5669,3922 "
   id="polygon430"
   style="stroke:#000000;stroke-width:1.003;stroke-dasharray:none;stroke-opacity:1" />
  <path
   class="fil11"
   d="m 5854,3924 c 8,0 16,-1 24,-3 8,-2 15,-6 21,-11 6,-5 11,-12 14,-19 3,-8 5,-16 5,-24 0,-8 -2,-15 -5,-22 -3,-7 -7,-13 -13,-18 -5,-6 -12,-10 -19,-12 7,-3 12,-7 17,-12 5,-5 9,-11 11,-17 3,-7 4,-13 4,-20 0,-8 -1,-15 -4,-22 -3,-7 -7,-13 -13,-18 -6,-5 -12,-9 -20,-11 -7,-2 -14,-3 -22,-3 -7,0 -15,1 -22,3 -7,2 -14,5 -19,9 -6,5 -10,11 -13,18 -3,7 -5,14 -5,21 v 0 h 28 v 0 c 0,-5 1,-10 4,-14 3,-5 7,-8 12,-10 5,-1 10,-2 15,-2 5,0 11,1 16,3 5,2 9,6 11,11 3,5 4,10 4,15 0,6 -1,11 -4,16 -2,6 -6,10 -10,13 -5,3 -10,5 -16,6 -5,1 -11,2 -16,2 v 24 c 6,0 12,1 18,2 6,1 11,3 17,7 5,3 9,8 12,13 2,6 4,11 4,18 0,6 -2,11 -5,17 -3,6 -7,10 -13,12 -6,2 -12,3 -18,3 -6,0 -11,-1 -17,-2 -5,-2 -10,-5 -13,-10 -4,-5 -6,-10 -6,-16 h -27 c 0,8 1,15 5,23 3,7 8,13 14,18 7,4 13,8 21,9 7,2 15,3 23,3 z"
   id="path432"
   style="stroke:#000000;stroke-width:1.003;stroke-dasharray:none;stroke-opacity:1" />
  <path
   class="fil11"
   d="m 7138,3961 h 29 l 14,-50 h 60 l 14,50 h 28 l -42,-155 -14,-52 h -32 z m 49,-75 6,-22 c 10,-34 15,-63 18,-85 2,22 8,51 17,85 l 7,22 z"
   id="path434"
   style="stroke:#000000;stroke-width:1.003;stroke-dasharray:none;stroke-opacity:1" />
  <polygon
   class="fil11"
   points="7352,3863 7415,3863 7415,3839 7352,3839 7352,3778 7433,3778 7433,3754 7324,3754 7324,3961 7352,3961 "
   id="polygon436"
   style="stroke:#000000;stroke-width:1.003;stroke-dasharray:none;stroke-opacity:1" />
  <polygon
   class="fil11"
   points="7596,3936 7509,3936 7596,3836 7596,3811 7476,3811 7476,3836 7563,3836 7476,3936 7476,3961 7596,3961 "
   id="polygon438"
   style="stroke:#000000;stroke-width:1.003;stroke-dasharray:none;stroke-opacity:1" />
  <path
   class="fil11"
   d="m 8815,3923 h 29 l 13,-50 h 61 l 13,50 h 29 l -42,-155 -15,-52 h -31 z m 49,-74 6,-23 c 9,-34 15,-62 17,-85 3,23 9,51 18,85 l 6,23 z"
   id="path440"
   style="stroke:#000000;stroke-width:1.003;stroke-dasharray:none;stroke-opacity:1" />
  <polygon
   class="fil11"
   points="9029,3826 9092,3826 9092,3801 9029,3801 9029,3741 9110,3741 9110,3716 9001,3716 9001,3923 9029,3923 "
   id="polygon442"
   style="stroke:#000000;stroke-width:1.003;stroke-dasharray:none;stroke-opacity:1" />
  <path
   class="fil11"
   d="m 9181,3840 43,-80 v 80 z m 43,83 h 28 v -58 h 20 v -25 h -20 v -124 h -35 l -67,124 v 25 h 74 z"
   id="path444"
   style="stroke:#000000;stroke-width:1.003;stroke-dasharray:none;stroke-opacity:1" />
  <path
   class="fil11"
   d="m 10385,3655 h 29 l 13,-50 h 61 l 13,50 h 29 l -42,-156 -15,-52 h -31 z m 49,-75 6,-22 c 9,-35 15,-63 18,-85 2,22 8,50 17,85 l 6,22 z"
   id="path446"
   style="stroke:#000000;stroke-width:1.003;stroke-dasharray:none;stroke-opacity:1" />
  <polygon
   class="fil11"
   points="10599,3557 10662,3557 10662,3532 10599,3532 10599,3472 10680,3472 10680,3447 10571,3447 10571,3655 10599,3655 "
   id="polygon448"
   style="stroke:#000000;stroke-width:1.003;stroke-dasharray:none;stroke-opacity:1" />
  <path
   class="fil11"
   d="m 10783,3657 c 7,0 15,-1 22,-3 8,-1 15,-4 21,-9 6,-4 11,-10 14,-17 3,-7 5,-14 5,-22 0,-22 -13,-41 -38,-57 22,-15 33,-33 33,-53 0,-8 -1,-15 -4,-21 -3,-7 -7,-13 -13,-18 -5,-4 -12,-8 -19,-9 -7,-2 -14,-3 -21,-3 -7,0 -14,1 -22,3 -7,1 -13,5 -19,9 -5,5 -9,11 -12,18 -3,6 -4,13 -4,21 0,20 11,38 33,53 -26,16 -38,35 -38,57 0,8 1,15 5,22 3,7 8,13 14,17 6,5 13,8 20,9 8,2 15,3 23,3 z m 0,-25 c -6,0 -11,-1 -16,-2 -6,-2 -10,-5 -13,-9 -4,-5 -6,-10 -6,-15 0,-6 2,-12 6,-18 4,-5 8,-10 13,-14 5,-4 10,-7 16,-11 5,4 11,7 16,11 5,4 9,9 13,14 3,6 5,12 5,18 0,5 -2,10 -5,15 -3,4 -8,7 -13,9 -5,1 -11,2 -16,2 z m 0,-97 c -20,-11 -30,-25 -30,-39 0,-5 2,-10 4,-14 3,-5 7,-8 11,-10 5,-1 10,-2 15,-2 5,0 10,1 14,2 5,2 9,5 11,10 3,4 4,9 4,14 0,14 -9,28 -29,39 z"
   id="path450"
   style="stroke:#000000;stroke-width:1.003;stroke-dasharray:none;stroke-opacity:1" />
  <polygon
   class="fil11"
   points="8857,2737 8920,2737 8920,2713 8857,2713 8857,2652 8938,2652 8938,2628 8829,2628 8829,2835 8857,2835 "
   id="polygon452"
   style="stroke:#000000;stroke-width:1.003;stroke-dasharray:none;stroke-opacity:1" />
  <path
   class="fil11"
   d="m 8981,2893 h 27 v -83 c 8,18 23,27 44,27 6,0 12,-1 17,-2 6,-2 11,-5 16,-9 4,-5 8,-10 11,-15 2,-5 4,-11 5,-17 1,-6 2,-12 2,-18 v -31 c 0,-6 -1,-12 -2,-18 -1,-6 -3,-12 -5,-18 -3,-5 -7,-10 -11,-14 -5,-4 -10,-7 -16,-9 -5,-2 -11,-3 -17,-3 -21,0 -36,9 -44,27 v -25 h -27 z m 60,-81 c -5,0 -9,0 -14,-2 -4,-2 -8,-4 -11,-8 -3,-4 -5,-8 -6,-13 -1,-4 -2,-9 -2,-13 v -31 c 0,-5 1,-10 2,-14 1,-5 3,-9 6,-12 3,-4 7,-7 11,-8 5,-2 9,-3 14,-3 5,0 9,1 14,2 4,2 8,5 12,8 3,4 5,8 6,13 1,4 2,9 2,14 v 31 c 0,4 -1,9 -2,14 -1,4 -3,8 -6,12 -4,4 -8,6 -12,8 -5,2 -9,2 -14,2 z"
   id="path454"
   style="stroke:#000000;stroke-width:1.003;stroke-dasharray:none;stroke-opacity:1" />
  <path
   class="fil11"
   d="m 9143,2835 h 120 v -25 h -91 c 2,-9 5,-17 9,-25 5,-8 11,-15 18,-21 7,-6 14,-11 22,-16 8,-5 15,-10 22,-16 7,-6 12,-13 16,-22 3,-8 5,-17 5,-26 0,-8 -1,-16 -4,-24 -2,-7 -6,-14 -12,-20 -6,-5 -13,-9 -21,-11 -8,-3 -16,-4 -24,-4 -7,0 -15,1 -22,3 -7,2 -14,5 -20,10 -6,4 -11,10 -14,17 -3,7 -4,15 -4,22 h 27 c 0,-5 2,-10 5,-15 3,-4 8,-8 13,-9 5,-2 10,-3 15,-3 5,0 9,1 14,2 4,1 8,4 11,7 3,3 5,7 7,12 1,4 1,9 1,13 0,9 -2,17 -7,25 -6,8 -12,14 -20,18 -8,4 -16,9 -23,14 -7,6 -14,12 -20,18 -6,7 -11,15 -14,23 -4,8 -6,17 -7,26 -1,9 -2,18 -2,27 z"
   id="path456"
   style="stroke:#000000;stroke-width:1.003;stroke-dasharray:none;stroke-opacity:1" />
  <polygon
   class="fil11"
   points="5518,2737 5581,2737 5581,2713 5518,2713 5518,2652 5599,2652 5599,2628 5490,2628 5490,2835 5518,2835 "
   id="polygon458"
   style="stroke:#000000;stroke-width:1.003;stroke-dasharray:none;stroke-opacity:1" />
  <path
   class="fil11"
   d="m 5642,2893 h 27 v -83 c 8,18 23,27 44,27 6,0 12,-1 17,-2 6,-2 11,-5 16,-9 4,-5 8,-10 11,-15 2,-5 4,-11 5,-17 1,-6 2,-12 2,-18 v -31 c 0,-6 -1,-12 -2,-18 -1,-6 -3,-12 -5,-18 -3,-5 -7,-10 -11,-14 -5,-4 -10,-7 -16,-9 -5,-2 -11,-3 -17,-3 -21,0 -36,9 -44,27 v -25 h -27 z m 60,-81 c -5,0 -9,0 -14,-2 -4,-2 -8,-4 -11,-8 -3,-4 -5,-8 -6,-13 -1,-4 -2,-9 -2,-13 v -31 c 0,-5 1,-10 2,-14 1,-5 3,-9 6,-12 3,-4 7,-7 11,-8 5,-2 9,-3 14,-3 5,0 9,1 14,2 4,2 8,5 12,8 3,4 5,8 6,13 1,4 2,9 2,14 v 31 c 0,4 -1,9 -2,14 -1,4 -3,8 -6,12 -4,4 -8,6 -12,8 -5,2 -9,2 -14,2 z"
   id="path460"
   style="stroke:#000000;stroke-width:1.003;stroke-dasharray:none;stroke-opacity:1" />
  <polygon
   class="fil11"
   points="5825,2684 5859,2659 5859,2835 5886,2835 5886,2628 5859,2628 5809,2663 "
   id="polygon462"
   style="stroke:#000000;stroke-width:1.003;stroke-dasharray:none;stroke-opacity:1" />
  <path
   class="fil11"
   d="m 7291,8021 c 7,0 15,-1 22,-3 7,-2 14,-5 20,-10 6,-5 11,-10 14,-17 3,-8 5,-15 5,-22 h -28 c 0,5 -1,10 -5,14 -3,5 -7,8 -12,10 -6,2 -11,3 -16,3 -5,0 -9,-1 -14,-2 -4,-2 -8,-4 -11,-7 -3,-3 -6,-7 -7,-12 -1,-4 -2,-9 -2,-13 v -95 c 0,-4 1,-9 2,-13 1,-4 4,-8 7,-12 3,-3 7,-5 11,-7 5,-1 9,-2 14,-2 5,0 10,1 16,3 5,2 9,5 12,9 4,5 5,10 5,16 h 28 c 0,-8 -2,-15 -5,-22 -3,-7 -8,-13 -14,-18 -6,-5 -13,-8 -20,-10 -7,-1 -15,-2 -22,-2 -7,0 -13,0 -20,2 -6,1 -12,3 -17,7 -6,3 -11,7 -14,13 -4,5 -7,11 -8,17 -2,7 -3,13 -3,19 v 95 c 0,6 1,13 3,19 1,6 4,12 8,17 3,6 8,10 14,14 5,3 11,5 17,7 7,1 13,2 20,2 z"
   id="path464" />
  <polygon
   class="fil11"
   points="7514,7993 7427,7993 7514,7894 7514,7869 7394,7869 7394,7894 7481,7894 7394,7993 7394,8018 7514,8018 "
   id="polygon466" />
  <path
   class="fil0 str1"
   d="M 9052,1286 C 8240,921 7876,9 7366,9 6855,9 6492,921 5679,1286"
   id="path468" />
  <ellipse
   class="fil0 str1"
   cx="533"
   cy="7910"
   rx="524"
   ry="1363"
   id="ellipse470" />
  <ellipse
   class="fil0 str1"
   cx="14199"
   cy="7910"
   rx="524"
   ry="1363"
   id="ellipse472" />
  <circle
   class="fil9 str1"
   cx="7366"
   cy="2468"
   r="380"
   id="circle474"
   style="fill:#ffffff" />
  <polygon
   class="fil11"
   points="7188,2471 7251,2471 7251,2447 7188,2447 7188,2386 7269,2386 7269,2362 7160,2362 7160,2569 7188,2569 "
   id="polygon476"
   style="stroke:#000000;stroke-width:1.003;stroke-dasharray:none;stroke-opacity:1" />
  <path
   class="fil11"
   d="m 7312,2627 h 28 v -83 c 8,18 22,27 43,27 6,0 12,-1 18,-2 5,-2 11,-5 15,-9 5,-5 8,-9 11,-15 3,-5 5,-11 6,-17 0,-6 1,-12 1,-18 v -31 c 0,-6 -1,-12 -1,-18 -1,-6 -3,-12 -6,-18 -3,-5 -6,-10 -11,-14 -4,-4 -10,-7 -15,-9 -6,-2 -12,-3 -18,-3 -21,0 -35,9 -43,27 v -25 h -28 z m 60,-81 c -5,0 -9,0 -14,-2 -4,-2 -8,-4 -11,-8 -2,-4 -5,-8 -6,-13 -1,-4 -1,-9 -1,-13 v -31 c 0,-5 0,-10 1,-14 1,-5 4,-9 6,-12 3,-4 7,-7 11,-8 5,-2 9,-3 14,-3 5,0 9,1 14,2 5,2 9,5 12,8 3,4 5,8 6,13 2,4 2,9 2,14 v 31 c 0,5 0,9 -2,14 -1,4 -3,9 -6,12 -3,4 -7,6 -12,8 -5,2 -9,2 -14,2 z"
   id="path478"
   style="stroke:#000000;stroke-width:1.003;stroke-dasharray:none;stroke-opacity:1" />
  <polygon
   class="fil11"
   points="7594,2544 7508,2544 7594,2444 7594,2419 7475,2419 7475,2444 7561,2444 7475,2544 7475,2569 7594,2569 "
   id="polygon480"
   style="stroke:#000000;stroke-width:1.003;stroke-dasharray:none;stroke-opacity:1" />
  <circle
   class="fil9 str1"
   cx="1656"
   cy="4154"
   r="380"
   id="circle482"
   style="fill:#ffffff;stroke:#000000;stroke-width:17.693;stroke-dasharray:none;stroke-opacity:1" />
  <polygon
   class="fil11"
   points="1556,4162 1620,4162 1620,4138 1556,4138 1556,4077 1637,4077 1637,4053 1528,4053 1528,4260 1556,4260 "
   id="polygon484"
   style="stroke:#000000;stroke-width:1.003;stroke-dasharray:none;stroke-opacity:1" />
  <path
   class="fil11"
   d="m 1742,4260 29,-51 c 6,-9 11,-18 16,-27 5,-9 8,-18 11,-28 3,-10 4,-20 4,-31 0,-7 0,-14 -2,-21 -1,-7 -3,-14 -6,-21 -4,-7 -8,-12 -14,-17 -5,-5 -11,-9 -18,-11 -7,-2 -15,-3 -22,-3 -7,0 -13,1 -20,3 -7,1 -13,4 -19,8 -5,4 -10,9 -13,15 -4,6 -6,13 -8,19 -1,7 -2,14 -2,21 0,8 1,17 3,25 3,8 7,16 13,22 5,7 12,11 21,14 8,3 16,4 25,4 7,0 13,0 18,-2 -3,5 -7,11 -11,18 l -36,63 z m -2,-104 c -5,0 -10,-1 -15,-3 -5,-2 -8,-5 -11,-9 -3,-4 -6,-8 -7,-13 -1,-5 -1,-10 -1,-15 0,-5 0,-10 1,-15 1,-5 4,-10 7,-14 3,-4 7,-7 11,-9 5,-2 10,-3 15,-3 h 2 1 c 5,1 9,2 14,4 4,2 8,5 10,9 3,4 5,9 6,14 1,4 2,9 2,14 0,5 -1,10 -2,15 -1,5 -3,9 -7,14 -3,4 -7,7 -11,9 -5,1 -10,2 -15,2 z"
   id="path486"
   style="stroke:#000000;stroke-width:1.003;stroke-dasharray:none;stroke-opacity:1" />
  <circle
   class="fil9 str1"
   cx="13081"
   cy="4154"
   r="380"
   id="circle488"
   style="fill:#ffffff;stroke:#000000;stroke-width:17.693;stroke-dasharray:none;stroke-opacity:1" />
  <polygon
   class="fil11"
   points="12899,4162 12962,4162 12962,4138 12899,4138 12899,4077 12980,4077 12980,4053 12871,4053 12871,4260 12899,4260 "
   id="polygon490"
   style="stroke:#000000;stroke-width:1.003;stroke-dasharray:none;stroke-opacity:1" />
  <polygon
   class="fil11"
   points="13044,4109 13078,4084 13078,4260 13105,4260 13105,4053 13078,4053 13028,4088 "
   id="polygon492"
   style="stroke:#000000;stroke-width:1.003;stroke-dasharray:none;stroke-opacity:1" />
  <path
   class="fil11"
   d="m 13246,4262 c 6,0 13,0 19,-2 7,-1 13,-4 18,-8 6,-3 11,-8 14,-14 4,-5 7,-11 8,-18 2,-6 3,-13 3,-19 v -89 c 0,-7 -1,-13 -3,-20 -1,-7 -4,-13 -8,-18 -3,-6 -8,-10 -14,-14 -5,-4 -11,-6 -18,-8 -6,-1 -13,-2 -19,-2 -7,0 -14,1 -20,2 -7,2 -13,4 -18,8 -6,4 -11,8 -14,14 -4,5 -7,11 -8,18 -2,7 -3,13 -3,20 v 89 c 0,6 1,13 3,19 1,7 4,13 8,18 3,6 8,11 14,14 5,4 11,7 18,8 6,2 13,2 20,2 z m 0,-25 c -5,0 -10,0 -14,-2 -5,-2 -9,-4 -12,-8 -4,-3 -6,-7 -7,-12 -1,-5 -2,-10 -2,-14 v -6 l 69,-47 v 53 c 0,4 -1,9 -2,14 -1,5 -3,9 -7,12 -3,4 -7,6 -12,8 -4,2 -9,2 -13,2 z m -35,-72 v -53 c 0,-5 1,-10 2,-14 1,-5 3,-9 7,-13 3,-3 7,-6 12,-8 4,-1 9,-2 14,-2 4,0 9,1 13,2 5,2 9,5 12,8 4,4 6,8 7,13 1,4 2,9 2,14 v 5 z"
   id="path494"
   style="stroke:#000000;stroke-width:1.003;stroke-dasharray:none;stroke-opacity:1" />
  <circle
   class="fil4 str1"
   cx="1656"
   cy="11692"
   r="380"
   id="circle496"
   style="fill:#ffffff" />
  <path
   class="fil11"
   d="m 1523,11798 h 28 v -82 h 30 c 7,0 13,-1 20,-2 6,-2 12,-5 18,-8 5,-4 10,-9 13,-15 4,-5 6,-11 8,-18 1,-7 2,-13 2,-20 0,-6 -1,-13 -2,-19 -2,-7 -4,-13 -8,-19 -3,-5 -8,-10 -13,-14 -6,-4 -12,-6 -18,-8 -7,-1 -13,-2 -20,-2 h -58 z m 28,-107 v -75 h 30 c 5,0 10,1 14,2 5,2 8,5 11,9 3,3 5,8 7,12 1,5 1,10 1,14 0,5 0,10 -1,14 -2,5 -4,9 -7,13 -3,4 -6,7 -11,8 -4,2 -9,3 -14,3 z"
   id="path498" />
  <path
   class="fil11"
   d="m 1742,11798 29,-50 c 6,-9 11,-18 16,-27 5,-9 8,-19 11,-29 3,-10 4,-20 4,-30 0,-8 0,-15 -2,-22 -1,-7 -3,-14 -6,-21 -4,-6 -8,-12 -14,-17 -5,-5 -11,-8 -18,-10 -7,-2 -15,-3 -22,-3 -7,0 -13,0 -20,2 -7,2 -13,4 -19,9 -5,4 -10,9 -13,15 -4,6 -6,12 -8,19 -1,7 -2,13 -2,20 0,9 1,17 3,25 3,9 7,16 13,23 5,6 12,11 21,13 8,3 16,5 25,5 7,0 13,-1 18,-3 -3,5 -7,11 -11,18 l -36,63 z m -2,-103 c -5,0 -10,-1 -15,-3 -5,-2 -8,-5 -11,-9 -3,-5 -6,-9 -7,-14 -1,-5 -1,-10 -1,-15 0,-5 0,-10 1,-15 1,-5 4,-9 7,-13 3,-5 7,-8 11,-10 5,-2 10,-3 15,-3 h 2 1 c 5,1 9,2 14,4 4,2 8,6 10,10 3,4 5,8 6,13 1,5 2,9 2,14 0,5 -1,10 -2,15 -1,5 -3,10 -7,14 -3,4 -7,7 -11,9 -5,2 -10,3 -15,3 z"
   id="path500" />
  <circle
   class="fil4 str1"
   cx="13094"
   cy="11692"
   r="380"
   id="circle502"
   style="fill:#ffffff" />
  <path
   class="fil11"
   d="m 12879,11798 h 28 v -82 h 30 c 7,0 14,-1 20,-2 7,-2 13,-5 18,-8 5,-4 10,-9 14,-15 3,-5 6,-11 7,-18 1,-7 2,-13 2,-20 0,-6 -1,-13 -2,-19 -1,-7 -4,-13 -7,-19 -4,-5 -9,-10 -14,-14 -5,-4 -11,-6 -18,-8 -6,-1 -13,-2 -20,-2 h -58 z m 28,-107 v -75 h 30 c 5,0 10,1 14,2 5,2 9,5 12,9 3,3 5,8 6,12 1,5 1,10 1,14 0,5 0,10 -1,14 -1,5 -3,9 -6,13 -3,4 -7,7 -12,8 -4,2 -9,3 -14,3 z"
   id="path504" />
  <polygon
   class="fil11"
   points="13058,11647 13091,11623 13091,11798 13119,11798 13119,11591 13091,11591 13041,11627 "
   id="polygon506" />
  <path
   class="fil11"
   d="m 13259,11801 c 6,0 13,-1 20,-3 6,-1 12,-4 18,-7 5,-4 10,-9 14,-14 4,-6 6,-12 8,-18 1,-7 2,-13 2,-20 v -89 c 0,-6 -1,-13 -2,-20 -2,-6 -4,-12 -8,-18 -4,-5 -9,-10 -14,-14 -6,-3 -12,-6 -18,-7 -7,-2 -14,-2 -20,-2 -7,0 -13,0 -20,2 -6,1 -12,4 -18,7 -6,4 -10,9 -14,14 -4,6 -6,12 -8,18 -1,7 -2,14 -2,20 v 89 c 0,7 1,13 2,20 2,6 4,12 8,18 4,5 8,10 14,14 6,3 12,6 18,7 7,2 13,3 20,3 z m 0,-25 c -5,0 -9,-1 -14,-3 -5,-1 -9,-4 -12,-7 -3,-4 -5,-8 -7,-13 -1,-5 -2,-9 -2,-14 v -6 l 69,-47 v 53 c 0,5 0,9 -1,14 -2,5 -4,9 -7,13 -4,3 -8,6 -12,7 -5,2 -9,3 -14,3 z m -35,-73 v -53 c 0,-5 1,-9 2,-14 2,-5 4,-9 7,-13 3,-3 7,-6 12,-7 5,-2 9,-3 14,-3 5,0 9,1 14,3 4,1 8,4 12,7 3,4 5,8 7,13 1,5 1,9 1,14 v 6 z"
   id="path508" />
  <circle
   class="fil12 str1"
   cx="7366"
   cy="1076"
   r="380"
   id="circle510" />
  <path
   class="fil13"
   d="m 7231,1178 h 27 v -83 c 0,-14 0,-28 0,-42 -1,-14 -1,-28 -2,-41 l 58,166 h 36 V 971 h -27 v 82 c 0,14 0,28 0,42 1,14 1,28 2,42 l -58,-166 h -36 z"
   id="path512" />
  <polygon
   class="fil13"
   points="7513,1153 7427,1153 7513,1053 7513,1028 7393,1028 7393,1053 7480,1053 7393,1153 7393,1178 7513,1178 "
   id="polygon514" />
  <circle
   class="fil12 str1"
   cx="7366"
   cy="14743"
   r="380"
   id="circle516" />
  <polygon
   class="fil13"
   points="7234,14844 7347,14844 7347,14819 7304,14819 7304,14662 7347,14662 7347,14637 7234,14637 7234,14662 7277,14662 7277,14819 7234,14819 "
   id="polygon518" />
  <polygon
   class="fil13"
   points="7513,14819 7427,14819 7513,14719 7513,14695 7393,14695 7393,14719 7480,14719 7393,14819 7393,14844 7513,14844 "
   id="polygon520" />
  <path
   class="fil11"
   d="m 3887,3648 h 29 l 13,-50 h 61 l 13,50 h 29 l -42,-156 -15,-52 h -31 z m 49,-75 6,-22 c 9,-34 15,-63 17,-85 3,22 9,51 18,85 l 6,22 z"
   id="path522"
   style="stroke:#000000;stroke-width:1.003;stroke-dasharray:none;stroke-opacity:1" />
  <polygon
   class="fil11"
   points="4101,3550 4164,3550 4164,3525 4101,3525 4101,3465 4182,3465 4182,3440 4073,3440 4073,3648 4101,3648 "
   id="polygon524"
   style="stroke:#000000;stroke-width:1.003;stroke-dasharray:none;stroke-opacity:1" />
  <polygon
   class="fil11"
   points="4225,3465 4315,3465 4243,3648 4273,3648 4344,3465 4344,3440 4225,3440 "
   id="polygon526"
   style="stroke:#000000;stroke-width:1.003;stroke-dasharray:none;stroke-opacity:1" />
  <circle
   class="fil12 str1"
   cx="532"
   cy="7910"
   r="380"
   id="circle528" />
  <polygon
   class="fil13"
   points="323,8016 434,8016 434,7991 351,7991 351,7808 323,7808 "
   id="polygon530" />
  <path
   class="fil13"
   d="m 480,8016 h 28 v -83 h 31 c 6,0 13,0 19,-2 7,-1 13,-4 18,-8 6,-4 10,-8 14,-14 3,-6 6,-12 7,-18 2,-7 2,-14 2,-20 0,-7 0,-13 -2,-20 -1,-6 -4,-12 -7,-18 -4,-6 -8,-10 -14,-14 -5,-4 -11,-7 -18,-8 -6,-2 -13,-3 -19,-3 h -59 z m 28,-107 v -76 h 31 c 4,0 9,1 13,3 5,2 9,4 12,8 3,4 5,8 6,13 1,4 2,9 2,14 0,5 -1,9 -2,14 -1,5 -3,9 -6,13 -3,3 -7,6 -12,8 -4,2 -9,3 -13,3 z"
   id="path532" />
  <path
   class="fil13"
   d="m 625,8016 h 29 l 13,-50 h 61 l 13,50 h 29 l -42,-156 -15,-52 h -31 z m 49,-75 6,-22 c 9,-34 15,-63 18,-85 2,22 8,51 17,85 l 6,22 z"
   id="path534" />
  <circle
   class="fil12 str1"
   cx="14199"
   cy="7910"
   r="380"
   id="circle536" />
  <path
   class="fil13"
   d="m 13979,8016 h 27 v -83 h 21 l 49,83 h 30 l -49,-84 c 6,-1 13,-4 19,-7 6,-4 11,-9 15,-15 3,-6 6,-12 8,-19 1,-6 2,-13 2,-20 0,-7 -1,-13 -2,-19 -1,-7 -4,-13 -7,-18 -3,-6 -8,-11 -13,-15 -5,-4 -11,-7 -18,-8 -6,-2 -12,-3 -19,-3 h -63 z m 27,-107 v -76 h 36 c 5,0 9,1 13,3 5,2 8,5 11,9 3,4 5,8 6,12 1,5 1,9 1,14 0,5 0,9 -1,14 -1,4 -3,8 -6,12 -3,4 -6,7 -11,9 -4,2 -8,3 -13,3 z"
   id="path538" />
  <path
   class="fil13"
   d="m 14147,8016 h 27 v -83 h 31 c 6,0 13,0 19,-2 7,-1 13,-4 18,-8 6,-4 10,-8 14,-14 3,-6 6,-12 7,-18 2,-7 2,-14 2,-20 0,-7 0,-13 -2,-20 -1,-6 -4,-12 -7,-18 -4,-6 -8,-10 -14,-14 -5,-4 -11,-7 -18,-8 -6,-2 -13,-3 -19,-3 h -58 z m 27,-107 v -76 h 31 c 4,0 9,1 14,3 4,2 8,4 11,8 3,4 5,8 6,13 1,4 2,9 2,14 0,5 -1,9 -2,14 -1,5 -3,9 -6,13 -3,3 -7,6 -11,8 -5,2 -10,3 -14,3 z"
   id="path540" />
  <path
   class="fil13"
   d="m 14291,8016 h 29 l 13,-50 h 61 l 13,50 h 29 l -42,-156 -15,-52 h -31 z m 49,-75 6,-22 c 9,-34 15,-63 18,-85 2,22 8,51 17,85 l 6,22 z"
   id="path542" />
  
  
  
  
  
  
  
  
  
  
  
  
  
  
  
  
  
  
  
  
  
  
  
  
  
  
  
  
  
  
  
  
  
  
  
  
  
  
  
  
  
  
  
  
  
  
  
  
  
  
  
  
  
  
  
  
  
  
  
  
  
  
  
  
  
  
  
  
  
  
  
  
  
  
  
  
  
  
  
  
  
  
  
  
  
  
  
  
  
  
  
  
  
  
  
  
  
  
  
  
  
  
  
  
  
  
  
  
  
  
  
  
  
  
  
  
  
  
  
  
  
  
  
  
  
  
  
  
  
  
  
  
  
  
  
  
  
  
  
  
  
  
  
  
  
  
  
  
  
  
  
  
  
  
  
  
  
  
  
  
  
  
  
  
  
  
  
  
  
  
  
  
  
  
  
  
  
  
  
  
  
  
  
  
  
  
  
  
  
  
  
  
  
  
  
  
  
  
  
  
  
  
  
  
  
  
  
  
  
  
  
  
  
  
  
  
  
  
  
</svg>
